<svg width="459" height="454" viewBox="0 0 459 454" fill="none" xmlns="http://www.w3.org/2000/svg">
<path d="M452.5 228.5C452.5 350.536 353.126 449.5 230.5 449.5C107.874 449.5 8.5 350.536 8.5 228.5C8.5 106.464 107.874 7.5 230.5 7.5C353.126 7.5 452.5 106.464 452.5 228.5Z" stroke="#357180" stroke-width="9"/>
<mask id="mask0_246_646" style="mask-type:alpha" maskUnits="userSpaceOnUse" x="4" y="3" width="453" height="451">
<path d="M230.5 454C355.592 454 457 353.04 457 228.5C457 103.96 355.592 3 230.5 3C105.408 3 4 103.96 4 228.5C4 353.04 105.408 454 230.5 454Z" fill="#D9D9D9"/>
</mask>
<g mask="url(#mask0_246_646)">
<path d="M230 445C350.398 445 448 348.07 448 228.5C448 108.93 350.398 12 230 12C109.602 12 12 108.93 12 228.5C12 348.07 109.602 445 230 445Z" fill="#F5EFEA"/>
<path d="M230 368C307.32 368 370 305.32 370 228C370 150.68 307.32 88 230 88C152.68 88 90 150.68 90 228C90 305.32 152.68 368 230 368Z" fill="#357180"/>
<path d="M230.367 217.763C227.865 217.763 225.465 218.791 223.696 220.62C221.927 222.45 220.933 224.931 220.933 227.519V266.541C220.933 269.129 221.927 271.61 223.696 273.44C225.465 275.269 227.865 276.297 230.367 276.297C232.869 276.297 235.269 275.269 237.039 273.44C238.808 271.61 239.802 269.129 239.802 266.541V227.519C239.802 224.931 238.808 222.45 237.039 220.62C235.269 218.791 232.869 217.763 230.367 217.763ZM233.952 179.521C231.655 178.545 229.079 178.545 226.782 179.521C225.624 179.985 224.566 180.681 223.669 181.569C222.835 182.518 222.165 183.606 221.687 184.789C221.159 185.946 220.901 187.216 220.933 188.496C220.925 189.78 221.163 191.053 221.633 192.241C222.102 193.43 222.794 194.511 223.669 195.422C224.586 196.284 225.639 196.977 226.782 197.471C228.211 198.078 229.763 198.313 231.301 198.155C232.838 197.997 234.315 197.451 235.601 196.564C236.886 195.678 237.942 194.479 238.675 193.072C239.407 191.665 239.794 190.094 239.802 188.496C239.767 185.913 238.79 183.439 237.066 181.569C236.169 180.681 235.11 179.985 233.952 179.521ZM230.367 129.962C211.707 129.962 193.466 135.683 177.951 146.403C162.436 157.123 150.343 172.359 143.202 190.185C136.061 208.011 134.193 227.627 137.833 246.551C141.474 265.475 150.459 282.858 163.654 296.502C176.849 310.145 193.66 319.437 211.961 323.201C230.263 326.965 249.233 325.033 266.472 317.649C283.712 310.265 298.447 297.761 308.814 281.718C319.18 265.675 324.714 246.813 324.714 227.519C324.714 214.707 322.273 202.021 317.532 190.185C312.791 178.349 305.841 167.594 297.08 158.536C288.319 149.477 277.919 142.291 266.472 137.388C255.025 132.485 242.757 129.962 230.367 129.962V129.962ZM230.367 305.564C215.439 305.564 200.846 300.987 188.434 292.411C176.022 283.835 166.348 271.646 160.635 257.385C154.923 243.124 153.428 227.432 156.34 212.293C159.252 197.153 166.441 183.247 176.997 172.332C187.552 161.417 201.001 153.984 215.642 150.973C230.283 147.961 245.459 149.507 259.251 155.414C273.043 161.321 284.831 171.324 293.124 184.159C301.418 196.993 305.845 212.083 305.845 227.519C305.845 248.217 297.892 268.069 283.738 282.705C269.583 297.341 250.385 305.564 230.367 305.564V305.564Z" fill="#F5EFEA"/>
</g>
</svg>
