<svg width="524" height="295" viewBox="0 0 524 295" fill="none" xmlns="http://www.w3.org/2000/svg">
<path d="M263 0L272 107H252L263 0Z" fill="#E67D39"/>
<path d="M524 247L417 256V236L524 247Z" fill="#E67D39"/>
<path d="M503.162 165.462L404.18 207.086L398 188.065L503.162 165.462Z" fill="#E67D39"/>
<path d="M458.03 89.8992L376.756 160.073L365 143.893L458.03 89.8992Z" fill="#E67D39"/>
<path d="M387.792 38.4656L332.18 130.321L316 118.565L387.792 38.4656Z" fill="#E67D39"/>
<path d="M0 246.534L107 255.534V235.534L0 246.534Z" fill="#E67D39"/>
<path d="M20.8376 164.996L119.82 206.62L126 187.599L20.8376 164.996Z" fill="#E67D39"/>
<path d="M65.9694 89.4335L147.244 159.608L159 143.427L65.9694 89.4335Z" fill="#E67D39"/>
<path d="M136.208 38L191.82 129.855L208 118.099L136.208 38Z" fill="#E67D39"/>
<path d="M423.5 287.5C423.5 280.22 422.307 268.507 420.401 255.748C417.202 234.329 411.994 209.963 407.049 198.672C399.159 180.655 387.594 164.284 373.016 150.495C358.437 136.705 341.129 125.767 322.081 118.304C303.033 110.841 282.617 107 262 107C241.382 107 220.967 110.841 201.919 118.304C182.871 125.767 165.563 136.705 150.984 150.495C136.405 164.284 124.841 180.655 116.951 198.672C112.049 209.864 106.31 233.907 102.665 255.189C100.443 268.164 99 280.114 99 287.5H102.665H145.5L196.5 291.5L262 287.5L329 291L386.5 286L420.401 287.374L423.5 287.5Z" fill="url(#paint0_linear_265_96)"/>
<path d="M104.94 259.5L119.262 258.064C132.919 256.695 146.701 257.258 160.2 259.738L170.472 261.624C186.249 264.522 202.395 264.799 218.261 262.447L240.076 259.212C254.435 257.082 269.031 257.107 283.383 259.283L304.274 262.451C319.772 264.802 335.548 264.641 350.995 261.975L364.204 259.696C378.402 257.245 392.884 256.91 407.181 258.701L417.55 260" stroke="#32C6FF" stroke-width="5" stroke-linecap="round"/>
<path d="M102.98 274L118.677 272.297C132.718 270.774 146.906 271.296 160.797 273.847L170.472 275.624C186.249 278.522 202.394 278.799 218.261 276.447L240.076 273.212C254.435 271.082 269.031 271.107 283.383 273.283L304.274 276.451C319.772 278.802 335.548 278.641 350.995 275.975L364.603 273.627C378.539 271.222 392.751 270.854 406.793 272.536L419.02 274" stroke="#32C6FF" stroke-width="5" stroke-linecap="round"/>
<path d="M102 287.5L119.819 285.852C133.11 284.623 146.507 285.223 159.635 287.634L170.472 289.624C186.249 292.522 202.394 292.799 218.261 290.447L240.076 287.212C254.435 285.082 269.031 285.107 283.383 287.283L304.274 290.451C319.772 292.802 335.548 292.641 350.995 289.975L365.905 287.402C378.986 285.145 392.314 284.682 405.52 286.026L420 287.5" stroke="#32C6FF" stroke-width="5" stroke-linecap="round"/>
<path d="M192.966 203.984C195.654 203.472 197.446 201.904 198.342 199.28C199.238 196.656 199.686 193.328 199.686 189.296C199.686 186.032 199.078 182.896 197.862 179.888C196.71 176.816 195.238 175.056 193.446 174.608C191.718 174.16 190.086 173.904 188.55 173.84C187.078 173.776 185.766 173.712 184.614 173.648V204.656C185.83 204.656 187.046 204.656 188.262 204.656C189.542 204.592 191.11 204.368 192.966 203.984ZM196.422 242.096L149.478 242V240.464H152.454C153.798 240.272 155.11 240.112 156.39 239.984C157.67 239.792 158.662 239.312 159.366 238.544C160.134 237.712 160.614 236.272 160.806 234.224L160.998 229.808V184.304L160.806 179.888C160.614 177.84 160.134 176.4 159.366 175.568C158.598 174.736 157.51 174.224 156.102 174.032C154.758 173.84 153.51 173.744 152.358 173.744C151.27 173.68 150.278 173.616 149.382 173.552V172.016L193.734 171.92C199.75 171.92 204.454 172.144 207.846 172.592C211.238 173.04 214.054 174.032 216.294 175.568C218.598 177.104 220.39 179.024 221.67 181.328C222.95 183.568 223.59 186.256 223.59 189.392C223.59 194.064 222.214 197.424 219.462 199.472C216.774 201.52 214.054 202.896 211.302 203.6C208.614 204.24 205.286 204.56 201.318 204.56V205.328C205.99 205.328 209.478 205.52 211.782 205.904C214.15 206.224 216.486 206.864 218.79 207.824C221.158 208.784 223.238 210.608 225.03 213.296C226.822 215.92 227.718 219.312 227.718 223.472C227.718 227.504 226.79 230.864 224.934 233.552C223.078 236.24 220.71 238.256 217.83 239.6C214.95 240.88 211.43 241.616 207.27 241.808C203.11 242 199.494 242.096 196.422 242.096ZM196.518 239.312C198.63 238.8 200.134 236.784 201.03 233.264C201.99 229.744 202.47 226.064 202.47 222.224C202.47 218.768 201.734 215.408 200.262 212.144C198.854 208.816 197.126 207.024 195.078 206.768C193.03 206.512 191.43 206.384 190.278 206.384C189.19 206.32 188.358 206.288 187.782 206.288H184.614V240.272H185.766C188.07 240.272 189.99 240.24 191.526 240.176C193.062 240.048 194.726 239.76 196.518 239.312ZM274.169 243.152C263.161 243.152 254.105 239.76 247.001 232.976C239.961 226.128 236.441 217.488 236.441 207.056C236.441 196.368 239.929 187.696 246.905 181.04C253.945 174.32 263.001 170.96 274.073 170.96C278.809 170.96 282.905 171.76 286.361 173.36L296.537 179.12C298.457 179.12 299.737 178.48 300.377 177.2C301.017 175.856 301.465 173.968 301.721 171.536H303.641V201.872H302.009C299.193 194.064 297.177 188.784 295.961 186.032C294.809 183.28 292.857 180.624 290.105 178.064C287.353 175.504 283.833 174.224 279.545 174.224C273.977 174.224 269.849 177.36 267.161 183.632C264.473 189.904 263.129 197.232 263.129 205.616C263.129 214.64 264.729 222.48 267.929 229.136C271.193 235.728 275.961 239.024 282.233 239.024C288.057 239.024 292.729 236.912 296.249 232.688C299.769 228.464 302.105 222.96 303.257 216.176L304.889 216.464C303.993 224.144 301.081 230.512 296.153 235.568C291.225 240.624 283.897 243.152 274.169 243.152ZM372.182 221.456C372.182 227.792 369.494 233.008 364.118 237.104C358.806 241.136 353.014 243.152 346.742 243.152C341.238 243.152 335.798 241.424 330.422 237.968C325.046 234.448 321.942 232.688 321.11 232.688C318.998 232.688 317.686 233.488 317.174 235.088C316.662 236.688 316.182 239.376 315.734 243.152H314.102V208.784H315.734C316.118 210.128 316.758 212.336 317.654 215.408C318.614 218.48 320.342 222.16 322.838 226.448C325.398 230.672 328.726 234.192 332.822 237.008C336.982 239.824 341.782 241.232 347.222 241.232C350.358 241.232 352.918 240.4 354.902 238.736C356.886 237.072 357.878 235.088 357.878 232.784C357.878 230.032 357.142 227.856 355.67 226.256C354.198 224.656 351.542 223.12 347.702 221.648C343.862 220.112 339.798 218.48 335.51 216.752C331.222 215.024 326.678 212.688 321.878 209.744C317.078 206.864 314.678 201.424 314.678 193.424C314.678 187.152 317.206 181.84 322.262 177.488C327.318 173.136 333.142 170.96 339.734 170.96C343.382 170.96 346.934 171.824 350.39 173.552L360.374 179.12C362.23 179.12 363.446 178.352 364.022 176.816C364.598 175.216 364.886 173.264 364.886 170.96H366.71V196.4H364.982C364.662 195.312 363.99 193.456 362.966 190.832C362.006 188.208 360.086 185.264 357.206 182C354.39 178.736 351.574 176.4 348.758 174.992C346.006 173.52 342.678 172.784 338.774 172.784C336.15 172.784 333.718 173.552 331.478 175.088C329.238 176.624 328.118 178.544 328.118 180.848C328.118 183.28 328.95 185.328 330.614 186.992C332.342 188.592 334.294 189.872 336.47 190.832C338.71 191.792 341.782 193.008 345.686 194.48C349.59 195.952 353.622 197.68 357.782 199.664C362.006 201.584 365.462 204.432 368.15 208.208C370.838 211.92 372.182 216.336 372.182 221.456Z" fill="#412675"/>
<defs>
<linearGradient id="paint0_linear_265_96" x1="262" y1="107" x2="262" y2="255.5" gradientUnits="userSpaceOnUse">
<stop offset="0.461458" stop-color="#E67D39"/>
<stop offset="1" stop-color="white"/>
</linearGradient>
</defs>
</svg>
