<svg width="459" height="454" viewBox="0 0 459 454" fill="none" xmlns="http://www.w3.org/2000/svg">
<path d="M452.5 228.5C452.5 350.536 353.126 449.5 230.5 449.5C107.874 449.5 8.5 350.536 8.5 228.5C8.5 106.464 107.874 7.5 230.5 7.5C353.126 7.5 452.5 106.464 452.5 228.5Z" stroke="#AD5C22" stroke-width="9"/>
<mask id="mask0_241_547" style="mask-type:alpha" maskUnits="userSpaceOnUse" x="4" y="3" width="453" height="451">
<ellipse cx="230.5" cy="228.5" rx="226.5" ry="225.5" fill="#D9D9D9"/>
</mask>
<g mask="url(#mask0_241_547)">
<ellipse cx="230" cy="228.5" rx="218" ry="216.5" fill="#F5EFEA"/>
</g>
<path fill-rule="evenodd" clip-rule="evenodd" d="M177.835 88.4627C131.176 94.151 95.9647 129.812 91.3939 176.009C89.9156 190.951 92.6511 208.278 98.7133 222.368L100.951 227.569L99.2996 232.966C89.6494 264.516 100.543 300.082 126.146 320.618C135.622 328.219 142.373 331.962 153.093 335.557C161.531 338.388 166.385 339.185 177.64 339.588L188.408 339.973L185.329 344.025C183.539 346.384 182.245 348.745 182.236 349.674C182.213 352.032 184.355 353.999 186.945 353.999C189.02 353.999 189.449 353.555 196.63 343.996C204.081 334.076 204.978 332.235 203.361 330.175C202.931 329.627 198.406 326.066 193.307 322.264C183.102 314.653 181.464 314.044 179.134 316.993C176.692 320.081 177.731 322.024 184.444 326.929L188.606 329.969L186.509 330.525C183.401 331.348 169.53 330.513 163.428 329.135C133.681 322.416 111.012 298.622 105.754 268.597C104.718 262.68 104.724 250.989 105.767 244.908C106.868 238.485 107.173 238.077 108.96 240.631C112.048 245.044 119.965 253.745 124.221 257.402C136.745 268.165 152.141 275.842 168.005 279.233C173.407 280.388 197.995 282.076 199.142 281.37C199.782 280.976 200.386 284.303 200.386 288.229C200.386 296.545 204.063 310.522 208.79 320.172C220.774 344.638 242.879 361.422 270.308 366.881C278.372 368.485 294.421 368.343 302.488 366.594C329.02 360.843 350.662 344.267 362.475 320.649C368.689 308.225 370.977 298.188 371 283.246C371.013 274.558 370.763 271.484 369.61 266.182C367.299 255.55 363.958 247.238 358.21 237.816L355.594 233.529L358.455 228.128C361.699 222.006 365.141 212.212 366.799 204.389C368.538 196.18 368.381 179.931 366.479 171.421C358.801 137.054 332.042 111.101 297.842 104.849L292.256 103.829L294.084 102.302C300.437 96.9936 301.235 96.0847 301.235 94.1604C301.235 91.7828 299.148 89.6876 296.78 89.6876C294.527 89.6876 276.342 104.723 275.749 107.077C275.195 109.272 276.572 111.36 284.818 120.828C289.108 125.754 292.499 129.101 293.436 129.336C296.663 130.141 299.707 126.223 298.243 123.148C297.887 122.402 296.024 119.968 294.101 117.74C292.178 115.511 290.6 113.504 290.595 113.279C290.582 112.662 295.241 113.373 301.655 114.967C326.462 121.135 347.174 140.338 355.121 164.54C358.291 174.194 359.036 179.765 358.7 191.298C358.472 199.125 358.079 202.776 357.057 206.571C355.332 212.965 352.861 219.561 350.913 222.965L349.379 225.644L345.443 221.98C330.777 208.326 312.027 199.634 294.658 198.436C291.902 198.246 288.731 197.952 287.611 197.783L285.575 197.475L285.57 192.361C285.56 183.456 284.366 170.283 283 164.008C275.537 129.724 249.131 101.699 215.021 91.8626C203.731 88.6067 188.259 87.1923 177.835 88.4627ZM189.11 130.83C190.218 131.933 190.363 132.908 190.363 139.246V146.415H210.999C231.515 146.415 231.645 146.423 233.213 147.818C235.472 149.826 235.825 152.024 234.215 154.061C232.914 155.707 232.773 155.733 224.425 155.904L215.956 156.077L213.897 162.395C210.16 173.862 203.814 185.046 195.729 194.415L192.232 198.467L194.586 200.525C200.717 205.884 216.949 215.442 224.972 218.416C226.608 219.023 227.947 219.701 227.947 219.923C227.947 220.146 226.415 221.834 224.543 223.673L221.139 227.019L217.809 225.617C209.806 222.249 196.7 214.323 189.589 208.552C187.613 206.948 185.685 205.636 185.304 205.636C184.924 205.636 183.158 206.852 181.38 208.338C171.16 216.883 150.571 228.077 145.075 228.077C142.401 228.077 140.878 226.494 140.878 223.714C140.878 220.836 141.781 220.024 147.768 217.513C157.805 213.304 167.906 207.325 175.479 201.111L178.447 198.674L174.325 194.145C169.386 188.718 162.929 179.863 162.41 177.807C161.947 175.971 163.558 173.377 165.653 172.584C167.871 171.745 169.925 172.75 171.636 175.512C173.295 178.19 180.135 186.756 183.202 189.995L185.214 192.121L187.218 189.85C195.592 180.358 203.402 166.697 205.729 157.47L206.159 155.766H172.624H139.09L137.792 154.123C136.173 152.076 136.139 150.105 137.69 148.198L138.887 146.727L159.874 146.547L180.861 146.368L181.071 139.166C181.265 132.477 181.386 131.88 182.759 130.774C184.677 129.23 187.528 129.256 189.11 130.83ZM302.488 208.682C316.889 211.935 328.492 218.4 339.499 229.302C349.807 239.512 356.049 250.147 359.956 264.157C361.518 269.761 361.629 270.995 361.627 282.934C361.625 294.75 361.502 296.163 359.995 301.682C351.916 331.269 328.413 352.936 298.833 358.07C291.995 359.257 279.71 359.241 272.66 358.035C241.789 352.757 217.238 328.954 210.63 297.895C209.079 290.603 209.082 275.288 210.637 268.101C217.584 235.975 242.449 212.664 275.24 207.533C280.989 206.634 296.276 207.278 302.488 208.682ZM283.796 237.272C282.443 238.415 251.269 313.974 250.693 317.507C250.034 321.551 255.173 324.179 257.954 321.22C258.571 320.563 261.15 314.906 263.685 308.649L268.294 297.272H286.557H304.82L309.664 309.089C312.329 315.588 314.885 321.217 315.346 321.597C316.663 322.685 319.909 322.506 321.282 321.27C323.716 319.078 324.501 321.463 308.261 281.688C291.297 240.138 290.593 238.468 289.537 237.307C288.236 235.877 285.468 235.86 283.796 237.272ZM287.455 254.262C287.455 254.565 290.414 262.044 294.032 270.882C297.649 279.719 300.609 287.309 300.609 287.747C300.609 288.371 297.545 288.545 286.515 288.545C276.913 288.545 272.421 288.332 272.421 287.877C272.421 286.352 286.391 253.055 286.9 253.368C287.205 253.556 287.455 253.958 287.455 254.262Z" fill="#AD5C22"/>
</svg>
