<svg width="459" height="454" viewBox="0 0 459 454" fill="none" xmlns="http://www.w3.org/2000/svg">
<path d="M452.5 228.5C452.5 350.536 353.126 449.5 230.5 449.5C107.874 449.5 8.5 350.536 8.5 228.5C8.5 106.464 107.874 7.5 230.5 7.5C353.126 7.5 452.5 106.464 452.5 228.5Z" stroke="#357180" stroke-width="9"/>
<mask id="mask0_241_608" style="mask-type:alpha" maskUnits="userSpaceOnUse" x="4" y="3" width="453" height="451">
<path d="M230.5 454C355.592 454 457 353.04 457 228.5C457 103.96 355.592 3 230.5 3C105.408 3 4 103.96 4 228.5C4 353.04 105.408 454 230.5 454Z" fill="#D9D9D9"/>
</mask>
<g mask="url(#mask0_241_608)">
<path d="M230 445C350.398 445 448 348.07 448 228.5C448 108.93 350.398 12 230 12C109.602 12 12 108.93 12 228.5C12 348.07 109.602 445 230 445Z" fill="#F5EFEA"/>
<path fill-rule="evenodd" clip-rule="evenodd" d="M230.497 70L222.411 74.2182L223.368 76.4224C207.493 92.2219 192.273 102.951 173.077 110.889C152.262 119.496 126.562 124.911 89.8763 129.662L84 130.423L85.6125 136.663C101.608 198.565 116.718 244.28 138.079 282.648C158.502 319.33 184.487 349.032 221.942 379.812L221.332 381.216L230.503 386L239.673 381.216L239.062 379.809C276.514 349.03 302.499 319.329 322.921 282.648C344.282 244.28 359.392 198.565 375.388 136.663L377 130.423L371.124 129.662C334.438 124.911 308.738 119.496 287.923 110.889C268.725 102.951 253.504 92.2203 237.628 76.4188L238.584 74.2182L230.497 70ZM230.848 76.3094L230.497 76.1264L230.15 76.3075L230.5 76.7127L230.848 76.3094ZM176.64 121.241C197.358 112.674 213.724 101.029 230.5 84.2681C247.276 101.029 263.642 112.674 284.36 121.241C305.172 129.846 330.186 135.265 364.056 139.869C348.731 198.317 334.231 241.095 314.304 276.885C294.258 312.891 268.563 342.1 230.5 373.004C192.437 342.1 166.742 312.891 146.696 276.885C126.769 241.095 112.269 198.317 96.9437 139.869C130.814 135.265 155.828 129.846 176.64 121.241Z" fill="#357180"/>
<path d="M167 150C167 147.239 169.239 145 172 145H288C290.761 145 293 147.239 293 150V168C293 170.761 290.761 173 288 173H172C169.239 173 167 170.761 167 168V150Z" fill="#01C1D6"/>
<path d="M280.503 165.445C282.691 165.445 283.704 164.361 283.704 162.524V160.923C283.704 160.405 283.583 160.169 283.258 159.839L281.799 158.426L283.258 157.012C283.583 156.683 283.704 156.447 283.704 155.929V154.516C283.704 152.679 282.691 151.595 280.503 151.595H266.645V165.445H280.503V165.445Z" fill="white"/>
<path d="M281.434 163.089H268.914V159.651H281.434V163.089Z" fill="#01C1D6"/>
<path d="M268.914 153.951H281.434V157.295H268.914V153.951Z" fill="#01C1D6"/>
<path d="M256.27 165.445C258.5 165.445 259.513 164.361 259.513 162.524V160.923C259.513 160.405 259.391 160.169 259.067 159.839L257.608 158.426L259.067 157.012C259.391 156.683 259.513 156.447 259.513 155.929V154.516C259.513 152.679 258.5 151.595 256.27 151.595H242.454V165.445H256.271L256.27 165.445Z" fill="white"/>
<path d="M257.244 163.089H244.722V159.651H257.244V163.089Z" fill="#01C1D6"/>
<path d="M244.722 153.951H257.244V157.295H244.722V153.951Z" fill="#01C1D6"/>
<path d="M232.444 151.595V162.995H220.612V151.595H218.343V162.288C218.343 164.267 219.396 165.445 221.423 165.445H231.635C233.66 165.445 234.713 164.267 234.713 162.288V151.595H232.444Z" fill="white"/>
<path d="M196.34 157.248V151.595H194.112V165.445H196.34V159.698H208.375V165.445H210.604V151.595H208.375V157.248H196.34Z" fill="white"/>
<path d="M187.548 154.045V151.595H174.337C172.311 151.595 171.298 152.773 171.298 154.751V162.289C171.298 164.267 172.311 165.445 174.337 165.445H187.548V162.995H173.567V154.045H187.548Z" fill="white"/>
<path d="M288.978 150.595C288.873 150.489 288.658 150.489 288.342 150.489H287.914V151.447H288.873C289.085 151.34 289.085 151.234 289.085 151.021C289.085 150.808 289.085 150.702 288.978 150.595ZM288.446 150.17C288.766 150.17 288.978 150.17 289.193 150.276C289.513 150.383 289.617 150.595 289.617 150.915C289.617 151.234 289.513 151.34 289.297 151.447C289.193 151.553 289.085 151.553 288.978 151.659C289.193 151.659 289.297 151.766 289.405 151.872C289.513 151.978 289.513 152.191 289.513 152.297V152.51C289.513 152.617 289.617 152.617 289.617 152.723V152.936H289.193V152.83L289.085 152.723V152.51C289.085 152.191 289.085 151.978 288.873 151.872C288.766 151.872 288.554 151.766 288.342 151.766H287.915V152.936H287.49V150.17H288.446V150.17ZM286.955 150.064C286.532 150.383 286.32 150.915 286.32 151.553C286.32 152.085 286.532 152.617 286.955 153.042C287.383 153.468 287.914 153.681 288.446 153.681C289.085 153.681 289.617 153.468 290.045 153.042C290.468 152.617 290.576 152.085 290.576 151.553C290.576 150.915 290.468 150.383 290.045 150.064C289.617 149.638 289.085 149.426 288.446 149.426C287.914 149.426 287.383 149.638 286.955 150.064ZM290.257 153.255C289.725 153.787 289.193 154 288.446 154C287.807 154 287.171 153.787 286.743 153.255C286.212 152.83 286 152.191 286 151.553C286 150.808 286.212 150.276 286.743 149.745C287.171 149.319 287.807 149 288.446 149C289.193 149 289.725 149.319 290.257 149.745C290.68 150.276 291 150.808 291 151.553C291 152.191 290.68 152.83 290.257 153.255Z" fill="white"/>
<path d="M171.186 200.269C171.048 199.609 171.287 199.201 172.072 198.756C173.09 198.18 176.589 197.996 180.903 198.293C186.13 198.651 193.987 199.703 199.104 200.728L201.68 201.244L203.926 200.067C208.058 197.901 211.736 196.474 213.707 196.273C214.979 196.144 216.207 196.414 216.586 196.907C216.836 197.233 216.844 197.328 216.675 197.987C216.305 199.429 214.208 201.758 210.994 204.297C210.218 204.909 209.54 205.468 209.485 205.539C209.431 205.61 212.32 206.965 215.906 208.551L222.425 211.434L225.048 209.583C229.205 206.651 232.147 205.06 234.389 204.533C235.299 204.319 235.604 204.302 236.041 204.438C237.65 204.939 237.519 207.44 235.68 211.288C235.223 212.244 234.871 213.039 234.899 213.054C234.926 213.069 235.929 213.475 237.126 213.955C238.324 214.436 240.926 215.553 242.909 216.438C247.86 218.646 250.461 219.765 252.293 220.477L253.848 221.081L260.054 217.876C273.31 211.028 280.971 207.723 287.055 206.227C289.229 205.693 291.332 205.488 292.393 205.709C293.293 205.896 293.869 206.428 293.888 207.09C293.975 210.135 288.51 215.692 278.491 222.747C273.631 226.169 270.361 228.234 264.189 231.777C262.297 232.863 260.664 233.818 260.562 233.899C260.547 233.911 260.533 233.921 260.52 233.932C260.326 234.099 260.303 234.498 259.699 243.438C259.111 252.138 259.058 253.168 259.195 253.263C259.245 253.298 260.84 253.118 262.738 252.863C266.632 252.339 267.2 252.36 268.272 253.062C268.831 253.428 268.922 253.557 269.013 254.103C269.094 254.586 269.036 254.894 268.757 255.47C268.312 256.39 267.011 257.756 265.736 258.644C263.502 260.2 259.492 261.944 256.622 262.61C255.721 262.818 254.958 263.024 254.927 263.067C254.86 263.158 253.439 276.985 253.45 277.437C253.457 277.706 253.544 277.739 254.179 277.715C254.575 277.7 256.206 277.475 257.804 277.214C261.075 276.681 262.038 276.647 263.293 277.022C264.348 277.337 264.684 277.641 264.81 278.395C264.935 279.141 264.451 280.182 263.496 281.223C261.773 283.1 257.636 285.597 254.644 286.564C253.811 286.833 253.011 287.123 252.866 287.208C252.664 287.326 252.502 287.972 252.18 289.953C250.761 298.669 246.917 309.006 243.216 314.06C241.326 316.641 240.225 317.043 239.1 315.561C238.263 314.459 237.603 310.799 237.283 305.488C237.133 303.009 236.981 301.485 236.201 294.653C235.711 290.367 235.378 286.083 234.821 276.915C234.211 266.88 234.078 265.005 233.705 261.176C233.318 257.198 232.552 250.876 232.448 250.805C232.404 250.774 228.793 252.748 224.425 255.192C216.367 259.7 213.843 261.114 201.165 268.214L194.071 272.187L190.938 287.965L187.179 290.088C185.112 291.255 183.396 292.215 183.365 292.22C183.197 292.248 182.917 290.914 181.497 283.302C180.641 278.716 179.768 274.148 179.555 273.15L179.169 271.335L177.83 270.338C177.093 269.79 173.962 267.518 170.871 265.289C161.406 258.463 160.106 257.473 160.229 257.183C160.278 257.068 165.312 254.458 167.051 253.647L167.61 253.386L170.951 254.415C174.752 255.586 182.671 258.08 185.602 259.028L187.569 259.665L198.88 252.992C205.102 249.322 213.045 244.64 216.531 242.587C220.017 240.535 223.101 238.712 223.384 238.537L223.899 238.219L222.349 237.107C221.496 236.496 212.992 230.516 203.451 223.818C180.976 208.042 172.304 201.862 171.556 201.089C171.417 200.946 171.251 200.577 171.186 200.269Z" fill="#357180"/>
</g>
</svg>
