<svg width="546" height="500" viewBox="0 0 546 500" fill="none" xmlns="http://www.w3.org/2000/svg">
<path fill-rule="evenodd" clip-rule="evenodd" d="M374.321 117.916C373.721 118.107 365.269 118.29 355.539 118.321C342.526 118.365 337.121 118.535 335.098 118.966C315.198 123.205 310.526 149.115 327.686 160.062C331.862 162.727 335.167 163.469 342.849 163.469C349.888 163.469 351.07 163.662 354.884 165.437C365.011 170.152 367.009 184.286 358.613 191.819C354.241 195.742 352.819 195.997 335.184 196.003C326.992 196.005 319.719 196.179 319.022 196.39C318.326 196.601 316.871 197.028 315.79 197.339C314.709 197.65 313.303 198.259 312.665 198.691C312.027 199.124 311.289 199.478 311.024 199.478C310.087 199.478 304.634 205.498 303.436 207.856C298.242 218.083 301.903 231.34 311.422 236.764C313.791 238.113 315.789 238.957 316.617 238.957C317.095 238.957 317.607 239.152 317.756 239.391C317.934 239.677 340.11 239.825 382.865 239.825H447.704V238.089C447.704 237.135 447.507 236.354 447.267 236.354C447.027 236.354 446.83 235.378 446.83 234.185C446.83 232.992 446.634 232.016 446.393 232.016C446.153 232.016 445.957 231.235 445.957 230.28C445.957 229.326 445.76 228.545 445.52 228.545C445.279 228.545 445.083 227.862 445.083 227.026C445.083 226.191 444.886 225.508 444.646 225.508C444.406 225.508 444.209 224.825 444.209 223.99C444.209 223.154 444.013 222.471 443.773 222.471C443.532 222.471 443.336 221.788 443.336 220.953C443.336 220.118 443.139 219.434 442.899 219.434C442.659 219.434 442.462 218.969 442.462 218.4C442.462 217.367 441.36 213.293 440.748 212.059C440.571 211.701 440.153 210.481 439.819 209.347C439.486 208.214 439.061 207.287 438.873 207.287C438.685 207.287 438.531 206.811 438.531 206.228C438.531 205.646 438.334 205.048 438.094 204.901C437.854 204.753 437.657 204.155 437.657 203.573C437.657 202.991 437.461 202.514 437.221 202.514C436.98 202.514 436.784 202.124 436.784 201.647C436.784 201.17 436.587 200.779 436.347 200.779C436.107 200.779 435.91 200.303 435.91 199.721C435.91 199.138 435.714 198.541 435.473 198.393C435.233 198.246 435.037 197.746 435.037 197.282C435.037 196.819 434.84 196.441 434.6 196.441C434.359 196.441 434.163 196.05 434.163 195.573C434.163 195.096 433.966 194.705 433.726 194.705C433.486 194.705 433.289 194.315 433.289 193.838C433.289 193.36 433.093 192.97 432.853 192.97C432.612 192.97 432.416 192.482 432.416 191.885C432.416 191.289 432.219 190.801 431.979 190.801C431.739 190.801 431.542 190.422 431.542 189.959C431.542 189.496 431.346 188.996 431.105 188.849C430.865 188.701 430.669 188.19 430.669 187.713C430.669 187.236 430.472 186.966 430.232 187.113C429.991 187.261 429.795 187.115 429.795 186.791C429.795 185.973 428.774 183.867 428.375 183.863C428.195 183.86 428.048 183.469 428.048 182.992C428.048 182.514 427.851 182.124 427.611 182.124C427.371 182.124 427.174 181.734 427.174 181.256C427.174 180.779 426.978 180.389 426.737 180.389C426.497 180.389 426.301 180.133 426.301 179.819C426.301 179.507 425.907 178.831 425.427 178.319C424.946 177.807 424.553 177.162 424.553 176.887C424.553 176.255 422.266 171.98 421.823 171.785C421.643 171.704 421.496 171.447 421.496 171.212C421.496 170.977 420.906 169.932 420.185 168.892C419.465 167.852 418.875 166.834 418.875 166.632C418.875 166.429 418.482 165.982 418.001 165.638C417.521 165.294 417.128 164.709 417.128 164.337C417.128 163.965 416.735 163.379 416.254 163.035C415.774 162.691 415.381 162.106 415.381 161.734C415.381 161.362 414.987 160.776 414.507 160.432C414.026 160.088 413.633 159.503 413.633 159.131C413.633 158.759 413.24 158.173 412.76 157.829C412.279 157.485 411.886 156.954 411.886 156.649C411.886 156.343 411.69 156.094 411.449 156.094C411.209 156.094 411.013 155.844 411.013 155.538C411.013 155.234 410.619 154.702 410.139 154.358C409.658 154.014 409.265 153.512 409.265 153.242C409.265 152.972 408.676 152.139 407.955 151.39C407.234 150.64 406.643 149.88 406.642 149.699C406.641 149.518 405.757 148.402 404.677 147.218C403.597 146.035 402.713 144.897 402.713 144.689C402.713 144.482 401.97 143.595 401.061 142.719C400.153 141.843 398.93 140.443 398.344 139.608C397.759 138.773 395.308 136.188 392.898 133.864C390.488 131.539 388.349 129.461 388.145 129.244C384.1 124.972 378.474 119.574 377.427 118.959C376.68 118.521 376.069 118.009 376.069 117.823C376.069 117.428 375.814 117.441 374.321 117.916ZM63.8059 144.38C63.3047 144.977 62.8919 145.624 62.8886 145.819C62.8853 146.013 62.1974 146.892 61.3576 147.772C60.519 148.65 59.831 149.535 59.8288 149.738C59.8277 149.94 59.2359 150.652 58.5152 151.321C57.7944 151.991 57.2048 152.772 57.2048 153.057C57.2048 153.342 56.615 154.123 55.8942 154.792C55.1735 155.461 54.584 156.277 54.584 156.606C54.584 156.934 54.1908 157.485 53.7104 157.829C53.2299 158.173 52.8368 158.759 52.8368 159.131C52.8368 159.503 52.4436 160.088 51.9632 160.432C51.4827 160.776 51.0896 161.362 51.0896 161.734C51.0896 162.106 50.6964 162.691 50.216 163.035C49.7355 163.379 49.3424 163.965 49.3424 164.337C49.3424 164.709 48.9492 165.294 48.4688 165.638C47.9883 165.982 47.5952 166.513 47.5952 166.818C47.5952 167.124 47.4215 167.374 47.2097 167.374C46.9967 167.374 46.7106 167.715 46.573 168.133C46.4344 168.55 45.8261 169.673 45.2211 170.627C43.5984 173.186 41.9168 176.389 41.9168 176.921C41.9168 177.178 41.5236 177.807 41.0432 178.319C40.5627 178.831 40.1696 179.507 40.1696 179.819C40.1696 180.133 39.973 180.389 39.7328 180.389C39.4925 180.389 39.296 180.779 39.296 181.256C39.296 181.734 39.0994 182.124 38.8592 182.124C38.6189 182.124 38.4224 182.514 38.4224 182.992C38.4224 183.469 38.2629 183.859 38.0675 183.859C37.872 183.859 37.4417 184.543 37.112 185.378C36.7822 186.213 36.3519 186.896 36.1565 186.896C35.961 186.896 35.8016 187.15 35.8016 187.46C35.8016 188.259 34.774 190.359 34.382 190.364C34.2018 190.366 34.0544 190.953 34.0544 191.669C34.0544 192.384 33.8578 192.97 33.6176 192.97C33.3773 192.97 33.1808 193.36 33.1808 193.838C33.1808 194.315 32.9842 194.705 32.744 194.705C32.5037 194.705 32.3072 195.096 32.3072 195.573C32.3072 196.05 32.1106 196.441 31.8704 196.441C31.6301 196.441 31.4336 196.831 31.4336 197.308C31.4336 197.786 31.237 198.176 30.9968 198.176C30.7565 198.176 30.56 198.762 30.56 199.478C30.56 200.193 30.3634 200.779 30.1232 200.779C29.8829 200.779 29.6864 201.17 29.6864 201.647C29.6864 202.124 29.4898 202.514 29.2496 202.514C29.0093 202.514 28.8128 203.003 28.8128 203.599C28.8128 204.196 28.6162 204.684 28.376 204.684C28.1357 204.684 27.9392 205.076 27.9392 205.557C27.9392 206.401 27.7841 206.819 26.6965 208.908C26.4191 209.442 26.192 210.26 26.192 210.726C26.192 211.192 25.9954 211.695 25.7551 211.842C25.5149 211.99 25.3183 212.575 25.3183 213.144C25.3183 213.712 25.1359 214.289 24.9121 214.427C24.6882 214.563 24.3715 215.747 24.2066 217.055C24.0418 218.364 23.7338 219.434 23.5209 219.434C23.3079 219.434 23.1343 220.118 23.1343 220.953C23.1343 221.788 22.9377 222.471 22.6975 222.471C22.4573 222.471 22.2607 223.057 22.2607 223.773C22.2607 224.488 22.0641 225.074 21.8239 225.074C21.5837 225.074 21.3871 225.855 21.3871 226.81C21.3871 227.764 21.1905 228.545 20.9503 228.545C20.7101 228.545 20.5135 229.326 20.5135 230.28C20.5135 231.235 20.3169 232.016 20.0767 232.016C19.8365 232.016 19.6399 232.785 19.6399 233.725C19.6399 234.665 19.4433 235.556 19.2031 235.703C18.9629 235.851 18.7663 236.839 18.7663 237.898C18.7663 238.958 18.5697 239.825 18.3295 239.825C18.0893 239.825 17.8927 240.789 17.8927 241.968C17.8927 243.147 17.6961 244.233 17.4559 244.38C17.2157 244.528 17.0191 245.808 17.0191 247.226C17.0191 248.654 16.8247 249.803 16.5823 249.803C16.3333 249.803 16.1455 251.093 16.1455 252.804C16.1455 254.818 15.9664 255.864 15.5995 255.985C14.8002 256.25 14.8002 310.167 15.5995 310.432C15.8998 310.532 16.1455 310.984 16.1455 311.439C16.1455 312.392 44.8935 312.302 49.7792 311.333C63.9839 308.518 75.1594 296.657 76.2962 283.188C76.4327 281.57 76.6784 280.032 76.8411 279.769C77.054 279.428 99.3154 279.226 155.732 279.057C239.281 278.805 236.248 278.894 241.049 276.563C256 269.305 256.159 247.351 241.315 240.044C236.505 237.676 236.768 237.696 208.368 237.675C182.628 237.655 180.614 237.564 178.094 236.301C177.677 236.091 177.124 235.92 176.863 235.92C175.445 235.92 170.694 231.855 168.752 228.979C165.568 224.265 164.542 214.633 166.966 212.225C167.137 212.054 167.278 211.64 167.278 211.305C167.278 210.971 167.908 209.788 168.678 208.676C173.807 201.273 177.473 199.911 192.293 199.911C203.252 199.911 205.653 199.667 210.257 198.089C218.373 195.307 224.979 188.482 227.494 180.28C227.768 179.385 228.19 178.005 228.43 177.213C229.605 173.337 228.694 165.224 226.632 161.197C226.42 160.782 226.246 160.25 226.246 160.012C226.246 159.23 223.064 154.622 221.033 152.466C218.228 149.485 211.642 145.248 209.816 145.248C209.476 145.248 208.858 145.069 208.441 144.85C206.022 143.581 200.412 143.472 133.142 143.384L64.7166 143.295L63.8059 144.38ZM115.399 349.562C95.9729 352.641 94.491 380.325 113.421 386.528C116.401 387.504 150.776 387.766 153.707 386.834C160.233 384.761 167.278 377.729 167.278 373.291C167.278 372.907 167.513 371.721 167.799 370.655C169.804 363.214 163.386 353.395 154.602 350.462C151.515 349.432 120.688 348.724 115.399 349.562ZM239.569 350.196C228.115 353.452 222.208 365.927 227.287 376.136C229.286 380.154 232.618 383.612 235.842 385.012C241.233 387.356 240.634 387.33 289.964 387.33C337.624 387.33 336.316 387.279 338.283 389.234C340.018 390.959 340.262 391.558 340.707 395.189C342.459 409.462 349.918 415.047 367.274 415.081C375.834 415.097 402.256 415.84 405.038 416.141C406.65 416.317 409.265 414.555 409.265 413.292C409.265 413.087 409.855 412.306 410.576 411.557C411.296 410.807 411.886 409.974 411.886 409.704C411.886 409.434 412.279 408.932 412.76 408.588C413.24 408.244 413.633 407.659 413.633 407.287C413.633 406.915 414.026 406.329 414.507 405.985C414.987 405.641 415.381 405.056 415.381 404.684C415.381 404.312 415.774 403.726 416.254 403.382C416.735 403.038 417.128 402.453 417.128 402.081C417.128 401.709 417.521 401.123 418.001 400.779C418.482 400.435 418.875 399.988 418.875 399.786C418.875 399.583 419.465 398.565 420.185 397.525C420.906 396.485 421.496 395.441 421.496 395.205C421.496 394.97 421.667 394.713 421.877 394.633C422.392 394.437 424.553 390.129 424.553 389.297C424.553 388.931 424.75 388.632 424.99 388.632C425.23 388.632 425.427 388.376 425.427 388.062C425.427 387.75 425.82 387.074 426.301 386.562C426.781 386.05 427.174 385.33 427.174 384.962C427.174 384.595 427.371 384.293 427.611 384.293C427.851 384.293 428.048 383.903 428.048 383.426C428.048 382.948 428.244 382.558 428.485 382.558C428.725 382.558 428.921 382.167 428.921 381.69C428.921 381.213 429.081 380.823 429.276 380.823C429.472 380.823 429.902 380.139 430.232 379.304C430.562 378.469 430.992 377.786 431.187 377.786C431.383 377.786 431.542 377.407 431.542 376.944C431.542 376.481 431.739 375.981 431.979 375.833C432.219 375.686 432.416 375.088 432.416 374.506C432.416 373.923 432.612 373.447 432.853 373.447C433.093 373.447 433.289 373.057 433.289 372.58C433.289 372.102 433.486 371.712 433.726 371.712C433.966 371.712 434.163 371.321 434.163 370.844C434.163 370.367 434.359 369.977 434.6 369.977C434.84 369.977 435.037 369.598 435.037 369.135C435.037 368.672 435.233 368.172 435.473 368.024C435.714 367.877 435.91 367.279 435.91 366.697C435.91 366.114 436.107 365.638 436.347 365.638C436.587 365.638 436.784 365.343 436.784 364.982C436.784 364.621 436.957 363.986 437.169 363.572C437.382 363.158 437.775 362.281 438.043 361.625C438.311 360.969 438.717 359.993 438.944 359.456C439.997 356.96 441.961 350.678 441.751 350.47C440.969 349.692 242.287 349.423 239.569 350.196Z" fill="#8ED973"/>
<path fill-rule="evenodd" clip-rule="evenodd" d="M209.867 66.6178C207.946 66.6981 206.187 66.9497 205.958 67.1775C205.73 67.4041 204.205 67.5907 202.572 67.5907C200.882 67.5907 199.601 67.7783 199.601 68.0245C199.601 68.2653 198.445 68.4584 197.007 68.4584C195.58 68.4584 194.29 68.6536 194.141 68.8922C193.993 69.1308 193.227 69.3261 192.441 69.3261C191.655 69.3261 190.876 69.4605 190.711 69.6243C190.41 69.9226 190.123 69.9779 187.48 70.2382C186.699 70.3152 186.061 70.5321 186.061 70.7198C186.061 70.9074 185.188 71.0614 184.121 71.0614C183.054 71.0614 182.059 71.2566 181.911 71.4953C181.762 71.7339 180.866 71.9291 179.919 71.9291C178.972 71.9291 178.198 72.1243 178.198 72.3629C178.198 72.6015 177.596 72.7968 176.862 72.7968C175.909 72.7968 175.62 72.9529 175.854 73.3391C176.045 73.6547 175.838 73.6102 175.359 73.2306C174.88 72.851 174.673 72.8065 174.864 73.1222C175.102 73.5159 174.765 73.6644 173.638 73.6644C172.783 73.6644 172.083 73.8597 172.083 74.0983C172.083 74.3369 171.58 74.5321 170.965 74.5321C170.331 74.5321 169.964 74.7198 170.117 74.966C170.266 75.2046 170.18 75.3998 169.925 75.3998C169.671 75.3998 169.459 75.1558 169.456 74.8575C169.45 74.4258 169.378 74.4248 169.103 74.8553C168.914 75.1525 168.228 75.4389 167.582 75.492C166.934 75.5451 166.405 75.7458 166.405 75.9367C166.405 76.1276 165.902 76.1937 165.29 76.0831C164.575 75.9551 164.087 76.107 163.933 76.5061C163.8 76.8499 163.549 77.0419 163.373 76.9345C162.975 76.6894 159.853 77.6178 159.853 77.9812C159.853 78.1276 159.35 78.2892 158.738 78.3391C158.124 78.39 157.252 78.6276 156.8 78.8673C156.348 79.108 155.573 79.3044 155.076 79.3044C154.58 79.3044 154.174 79.4996 154.174 79.7382C154.174 79.9768 153.793 80.172 153.327 80.172C152.86 80.172 152.357 80.3673 152.209 80.6059C152.06 80.8445 151.557 81.0397 151.09 81.0397C150.624 81.0397 150.243 81.1926 150.243 81.3792C150.243 81.5658 149.313 81.9909 148.175 82.325C147.038 82.6579 145.723 83.2859 145.254 83.7209C144.784 84.1547 143.896 84.5169 143.281 84.5245C142.096 84.5386 140.504 85.4855 140.855 85.9671C140.97 86.1243 140.841 86.069 140.57 85.8434C140.25 85.5777 139.851 85.659 139.43 86.0777C139.073 86.4323 138.215 86.8347 137.523 86.9725C136.831 87.1091 136.265 87.3922 136.265 87.6015C136.265 87.8109 135.86 87.9811 135.366 87.9811C134.871 87.9811 134.588 88.1764 134.737 88.415C134.885 88.6536 134.59 88.8488 134.081 88.8488C133.572 88.8488 133.278 89.0441 133.426 89.2827C133.579 89.5289 133.212 89.7165 132.579 89.7165C131.964 89.7165 131.461 89.9117 131.461 90.1503C131.461 90.389 131.166 90.5842 130.805 90.5842C130.445 90.5842 130.15 90.7794 130.15 91.018C130.15 91.2566 129.755 91.4519 129.272 91.4519C128.79 91.4519 127.778 92.0375 127.024 92.7534C126.269 93.4692 125.214 94.0549 124.679 94.0549C124.143 94.0549 123.463 94.3456 123.166 94.7013C122.869 95.056 122.452 95.2404 122.239 95.1091C122.026 94.9779 121.851 95.0289 121.85 95.2219C121.85 95.415 120.677 96.1406 119.246 96.8336C117.814 97.5278 116.745 98.2599 116.871 98.4605C116.995 98.6623 116.829 98.8271 116.499 98.8271C116.17 98.8271 115.478 99.2176 114.963 99.6948C114.447 100.172 113.766 100.562 113.448 100.562C113.13 100.562 112.588 100.953 112.241 101.43C111.895 101.907 111.306 102.298 110.931 102.298C110.556 102.298 109.967 102.688 109.621 103.166C109.275 103.643 108.685 104.033 108.31 104.033C107.936 104.033 107.346 104.424 107 104.901C106.654 105.378 106.112 105.769 105.796 105.769C105.482 105.769 104.554 106.435 103.734 107.248C102.915 108.061 101.644 109.08 100.91 109.51C100.175 109.941 99.5743 110.447 99.5743 110.634C99.5743 110.822 99.3144 110.974 98.9977 110.974C98.681 110.974 97.9996 111.414 97.4842 111.951C95.6627 113.846 94.134 115.095 93.7726 114.979C93.5716 114.915 92.6815 115.609 91.7948 116.521C90.9081 117.434 89.8392 118.311 89.4188 118.469C88.9983 118.627 88.6543 119.056 88.6543 119.42C88.6543 119.786 88.3508 120.085 87.9806 120.085C87.261 120.085 80.3551 126.781 80.3551 127.479C80.3551 127.708 80.0482 127.894 79.6736 127.894C79.2991 127.894 79.0861 128.043 79.1986 128.225C79.3122 128.406 78.6024 129.236 77.6229 130.069C74.2016 132.974 68.5615 138.824 68.805 139.214C68.9393 139.431 68.7373 139.608 68.3551 139.608C67.9729 139.608 67.5339 139.949 67.3788 140.367C67.2238 140.785 66.8874 141.265 66.6319 141.433C64.9742 142.529 69.0759 142.651 116.629 142.917L166.186 143.194L170.325 137.605C178.673 126.331 187.956 116.08 199.35 105.552C209.833 95.8651 225.054 84.9725 239.83 76.5809C242.831 74.877 254.953 68.8922 255.404 68.8922C255.62 68.8922 256.241 68.4226 256.784 67.8477L257.771 66.8044L255.004 66.6102C251.854 66.3911 215.18 66.3966 209.867 66.6178ZM76.936 281.941C76.6543 283.151 76.4239 284.8 76.4239 285.602C76.4239 286.405 76.2273 287.183 75.9871 287.33C75.7468 287.478 75.5503 288.077 75.5503 288.663C75.5503 289.249 75.3712 290.067 75.1517 290.481C74.9322 290.895 74.2246 292.368 73.5792 293.753C69.9428 301.554 61.6502 308.517 53.0551 310.985C52.0941 311.261 50.704 311.664 49.9669 311.881C49.2287 312.098 42.6439 312.277 35.3341 312.279C28.0231 312.28 20.7155 312.406 19.0939 312.559L16.1455 312.836V314.482C16.1455 315.388 16.3421 316.25 16.5823 316.397C16.8225 316.545 17.0191 317.814 17.0191 319.217C17.0191 320.621 17.2157 321.89 17.4559 322.037C17.6961 322.185 17.8927 323.271 17.8927 324.449C17.8927 325.628 18.0893 326.593 18.3295 326.593C18.5697 326.593 18.7663 327.459 18.7663 328.519C18.7663 329.579 18.9629 330.567 19.2031 330.714C19.4433 330.862 19.6399 331.752 19.6399 332.692C19.6399 333.633 19.8365 334.402 20.0767 334.402C20.3169 334.402 20.5135 335.183 20.5135 336.137C20.5135 337.092 20.7101 337.872 20.9503 337.872C21.1905 337.872 21.3871 338.361 21.3871 338.957C21.3871 339.554 21.6328 340.045 21.9331 340.048C22.3033 340.053 22.2684 340.203 21.8239 340.516C21.3303 340.862 21.3041 341.03 21.7147 341.196C22.015 341.316 22.2607 341.985 22.2607 342.68C22.2607 343.377 22.4573 343.946 22.6975 343.946C22.9377 343.946 23.1343 344.63 23.1343 345.465C23.1343 346.3 23.3309 346.983 23.5711 346.983C23.8113 346.983 24.0079 347.569 24.0079 348.285C24.0079 349 24.2077 349.586 24.4534 349.586C24.7046 349.586 24.7843 350.038 24.6347 350.628C24.4676 351.291 24.5932 351.805 24.9787 352.038C25.3128 352.241 25.5946 352.797 25.6055 353.274C25.6241 354.116 25.7191 354.433 26.7739 357.178C27.0491 357.894 27.2763 358.61 27.2785 358.769C27.2818 358.928 27.4314 359.204 27.6116 359.383C27.7917 359.562 27.9392 360.164 27.9392 360.722C27.9392 361.278 28.1356 361.734 28.3759 361.734C28.6161 361.734 28.8128 362.222 28.8128 362.818C28.8128 363.415 29.0092 363.903 29.2495 363.903C29.4897 363.903 29.6896 364.342 29.6929 364.879C29.6984 365.669 29.7803 365.73 30.1232 365.204C30.4333 364.728 30.548 365.047 30.5534 366.397C30.5567 367.412 30.7565 368.241 30.9968 368.241C31.237 368.241 31.4335 368.632 31.4335 369.109C31.4335 369.586 31.6301 369.977 31.8704 369.977C32.1106 369.977 32.3071 370.367 32.3071 370.844C32.3071 371.321 32.5036 371.712 32.7439 371.712C32.9841 371.712 33.1807 372.102 33.1807 372.58C33.1807 373.057 33.3772 373.447 33.6175 373.447C33.8577 373.447 34.0543 373.923 34.0543 374.506C34.0543 375.088 34.2508 375.686 34.4911 375.833C34.7313 375.981 34.9279 376.481 34.9279 376.944C34.9279 377.407 35.1244 377.786 35.3647 377.786C35.6049 377.786 35.8015 378.176 35.8015 378.653C35.8015 379.131 35.9489 379.521 36.1301 379.521C36.3103 379.521 36.9273 380.4 37.5006 381.473C38.0739 382.547 38.7619 383.429 39.0294 383.432C39.2959 383.435 39.2194 383.628 38.8591 383.859C38.4223 384.139 38.3862 384.282 38.7499 384.287C39.0502 384.29 39.2959 384.684 39.2959 385.161C39.2959 385.638 39.4924 386.029 39.7327 386.029C39.9729 386.029 40.1695 386.419 40.1695 386.896C40.1695 387.393 40.461 387.764 40.8509 387.764C41.2254 387.764 41.41 387.959 41.2615 388.198C41.1129 388.436 41.1763 388.632 41.4034 388.632C41.7725 388.632 42.1842 389.513 42.5839 391.163C42.6603 391.481 43.0829 392.011 43.5219 392.342C43.9598 392.672 44.1651 392.948 43.9773 392.956C43.7894 392.964 44.164 393.897 44.8094 395.031C45.4547 396.164 46.218 397.528 46.5041 398.061C46.7913 398.595 47.1539 398.904 47.31 398.748C47.4673 398.593 47.5951 398.754 47.5951 399.107C47.5951 399.459 47.9882 400.167 48.4687 400.679C48.9491 401.191 49.3423 401.868 49.3423 402.184C49.3423 402.499 49.7354 403.038 50.2159 403.382C50.6963 403.726 51.0895 404.209 51.0895 404.454C51.0905 404.7 51.5776 405.462 52.1727 406.15C52.7679 406.838 53.1708 407.534 53.0692 407.698C52.9666 407.863 53.2658 408.271 53.7332 408.605C54.2017 408.94 54.5839 409.572 54.5839 410.011C54.5839 410.449 54.7804 410.688 55.0207 410.541C55.2609 410.393 55.4575 410.534 55.4575 410.853C55.4575 411.173 55.8506 411.715 56.3311 412.059C56.8115 412.403 57.2047 413.032 57.2047 413.456C57.2047 413.957 57.5497 414.24 58.1875 414.263C58.728 414.281 58.9311 414.393 58.6395 414.51C58.2781 414.657 58.4168 415.041 59.0763 415.721C59.6081 416.268 60.1509 416.659 60.2808 416.587C60.4108 416.516 60.5462 416.832 60.5811 417.29C60.6161 417.749 61.1479 418.587 61.7638 419.154C62.3796 419.721 62.8831 420.418 62.8831 420.702C62.8831 420.987 63.0796 421.1 63.3199 420.953C63.5601 420.805 63.7567 420.941 63.7567 421.255C63.7567 421.569 64.5429 422.654 65.5039 423.667C66.4648 424.681 67.2511 425.698 67.2511 425.928C67.2511 426.158 67.6442 426.555 68.1247 426.81C68.6051 427.064 68.9983 427.451 68.9983 427.665C68.9983 427.88 70.9639 429.972 73.3652 432.314C78.6865 437.5 79.3854 438.197 84.5625 443.461C86.8186 445.756 88.8542 447.634 89.0857 447.634C89.3161 447.634 90.3896 448.512 91.4706 449.586C92.5517 450.66 93.7473 451.538 94.1284 451.538C94.5096 451.538 94.6996 451.734 94.5511 451.972C94.4025 452.211 94.5086 452.406 94.787 452.406C95.0655 452.406 95.8462 452.994 96.5221 453.713C97.3433 454.586 97.825 454.838 97.9724 454.472C98.1078 454.138 98.2082 454.222 98.2289 454.684C98.2486 455.101 98.4866 455.443 98.7585 455.443C99.0304 455.443 99.6202 455.864 100.069 456.377C100.518 456.891 100.885 457.079 100.885 456.793C100.885 456.414 101.046 456.425 101.494 456.836C101.829 457.144 102.014 457.542 101.905 457.721C101.797 457.9 101.917 458.046 102.173 458.046C102.43 458.046 103.257 458.632 104.011 459.348C104.766 460.063 105.648 460.649 105.972 460.649C106.298 460.649 106.563 460.844 106.563 461.083C106.563 461.321 106.87 461.517 107.244 461.517C107.619 461.517 107.804 461.712 107.655 461.951C107.507 462.189 107.717 462.384 108.124 462.384C108.531 462.384 109.23 462.805 109.679 463.318C110.127 463.832 110.494 464.025 110.494 463.749C110.494 463.471 111.113 463.832 111.869 464.55C112.626 465.267 113.467 465.855 113.739 465.855C114.01 465.855 114.516 466.246 114.862 466.723C115.208 467.2 115.744 467.59 116.05 467.59C116.358 467.59 116.609 467.786 116.609 468.024C116.609 468.263 117.015 468.458 117.509 468.458C118.004 468.458 118.287 468.653 118.138 468.892C117.99 469.131 118.273 469.326 118.767 469.326C119.262 469.326 119.667 469.521 119.667 469.76C119.667 469.998 119.962 470.194 120.322 470.194C120.683 470.194 120.977 470.352 120.977 470.546C120.977 470.74 121.665 471.167 122.506 471.495C123.347 471.823 124.035 472.234 124.035 472.409C124.035 472.584 124.674 472.867 125.455 473.037C126.234 473.208 127.192 473.711 127.581 474.157C127.969 474.601 128.608 474.966 129 474.966C129.392 474.966 129.713 475.161 129.713 475.4C129.713 475.638 130.106 475.833 130.587 475.833C131.067 475.833 131.461 476.029 131.461 476.267C131.461 476.506 132.099 476.704 132.88 476.708C133.957 476.713 134.141 476.816 133.645 477.135C133.115 477.476 133.177 477.557 133.972 477.562C134.513 477.566 134.955 477.764 134.955 478.003C134.955 478.241 135.233 478.436 135.574 478.436C135.914 478.436 136.258 478.63 136.339 478.867C136.418 479.103 137.014 479.34 137.664 479.393C138.314 479.446 138.758 479.575 138.654 479.679C138.358 479.973 140.633 481.04 141.557 481.04C142.01 481.04 142.381 481.235 142.381 481.473C142.381 481.712 142.884 481.907 143.499 481.907C144.132 481.907 144.499 482.095 144.346 482.341C144.198 482.58 144.464 482.775 144.939 482.775C145.414 482.775 145.901 483.019 146.022 483.317C146.194 483.74 146.251 483.736 146.277 483.3C146.3 482.932 146.638 483.043 147.267 483.625C147.855 484.169 148.824 484.512 149.779 484.517C150.944 484.522 151.17 484.629 150.68 484.944C150.15 485.285 150.212 485.366 151.007 485.371C151.548 485.375 151.99 485.573 151.99 485.812C151.99 486.05 152.592 486.246 153.327 486.246C154.105 486.246 154.55 486.427 154.393 486.679C154.235 486.932 154.68 487.113 155.458 487.113C156.193 487.113 156.795 487.261 156.795 487.442C156.795 487.842 159.931 488.849 161.182 488.849C161.681 488.849 161.967 489.044 161.818 489.282C161.665 489.528 162.023 489.716 162.64 489.716C163.241 489.716 163.845 489.897 163.984 490.12C164.121 490.342 165.313 490.657 166.629 490.82C167.948 490.984 169.025 491.29 169.025 491.502C169.025 491.713 169.713 491.885 170.554 491.885C171.395 491.885 172.083 492.081 172.083 492.319C172.083 492.558 172.661 492.753 173.367 492.753C174.074 492.753 174.754 492.917 174.878 493.116C175.002 493.316 175.848 493.507 176.757 493.541C177.666 493.574 178.478 493.802 178.558 494.045C178.64 494.289 179.38 494.489 180.2 494.489C181.021 494.489 181.693 494.684 181.693 494.922C181.693 495.161 182.675 495.356 183.877 495.356C185.078 495.356 186.061 495.551 186.061 495.79C186.061 496.029 186.847 496.224 187.808 496.224C188.769 496.224 189.555 496.388 189.555 496.589C189.555 496.79 190.587 496.99 191.848 497.033C193.109 497.077 194.207 497.303 194.287 497.536C194.367 497.768 195.596 497.959 197.017 497.959C198.438 497.959 199.601 498.126 199.601 498.33C199.601 498.534 200.922 498.737 202.534 498.781C204.277 498.829 205.601 499.074 205.795 499.387C206.278 500.162 259.163 500.146 259.945 499.369C260.283 499.034 261.711 498.827 263.68 498.827C265.514 498.827 266.869 498.643 266.869 498.393C266.869 498.152 268.025 497.959 269.463 497.959C270.89 497.959 272.18 497.764 272.329 497.525C272.477 497.287 273.275 497.092 274.102 497.092C275.009 497.092 275.607 496.877 275.611 496.549C275.615 496.182 275.767 496.216 276.082 496.658C276.43 497.148 276.599 497.174 276.766 496.766C276.895 496.449 277.778 496.224 278.891 496.224C279.938 496.224 280.916 496.029 281.065 495.79C281.213 495.551 281.999 495.356 282.812 495.356C283.624 495.356 284.41 495.161 284.559 494.922C284.707 494.684 285.293 494.489 285.858 494.489C286.425 494.489 286.989 494.244 287.11 493.946C287.277 493.538 287.446 493.564 287.795 494.055C288.109 494.496 288.261 494.531 288.265 494.163C288.27 493.82 288.916 493.621 290.019 493.621C290.98 493.621 291.766 493.473 291.766 493.292C291.766 492.862 294.943 491.885 296.346 491.885C296.95 491.885 297.445 491.713 297.445 491.502C297.445 491.29 298.522 490.984 299.84 490.82C301.157 490.657 302.349 490.342 302.486 490.12C302.625 489.897 303.179 489.716 303.717 489.716C304.255 489.716 304.882 489.545 305.11 489.334C305.339 489.125 306.312 488.721 307.273 488.436C309.157 487.88 309.679 487.678 312.837 486.289C313.975 485.788 315.204 485.378 315.567 485.378C315.93 485.378 316.227 485.183 316.227 484.944C316.227 484.705 316.817 484.51 317.537 484.51C318.258 484.51 318.848 484.315 318.848 484.076C318.848 483.838 319.241 483.643 319.721 483.643C320.202 483.643 320.595 483.461 320.595 483.24C320.595 483.019 320.939 482.76 321.359 482.663C322.995 482.289 316.548 480.606 313.477 480.606C312.834 480.606 311.47 480.416 310.446 480.183C309.422 479.951 305.929 479.249 302.686 478.623C292.532 476.664 282.733 473.971 272.329 470.277C266.098 468.064 263.69 467.112 263.178 466.658C262.949 466.455 262.513 466.289 262.208 466.289C261.157 466.289 245.679 458.952 240.628 456.058C225.556 447.428 211.974 437.974 202.671 429.644C195.291 423.033 191.607 419.459 185.624 413.105C178.225 405.247 171.098 396.295 165.102 387.33C163.585 385.063 162.288 383.14 162.219 383.057C162.15 382.972 161.424 383.412 160.605 384.033C159.785 384.653 158.887 385.161 158.61 385.161C158.332 385.161 158.105 385.356 158.105 385.595C158.105 385.833 157.808 386.029 157.445 386.029C157.081 386.029 156.442 386.2 156.025 386.409C153.577 387.638 151.524 387.764 134.014 387.764C116.799 387.764 115.739 387.718 113.1 386.857C107.157 384.92 102.958 380.837 100.425 374.532C97.8118 368.024 99.9313 359.563 105.46 354.44C107.878 352.199 109.489 351.203 113.333 349.574C114.265 349.179 118.891 348.944 129.341 348.761L144.037 348.502L142.951 345.682C142.353 344.131 141.697 342.471 141.494 341.994C138.168 334.203 132.378 312.69 130.81 302.298C130.648 301.224 130.334 299.174 130.111 297.742C129.255 292.242 128.42 284.622 128.412 282.233L128.403 279.738H102.926H77.4471L76.936 281.941Z" fill="#6CDCE4"/>
<path fill-rule="evenodd" clip-rule="evenodd" d="M256.822 67.8076C256.258 68.4041 255.62 68.8922 255.404 68.8922C254.953 68.8922 242.831 74.877 239.83 76.5809C226.513 84.1438 213.935 92.9258 203.331 102.064C195.205 109.066 185.356 119.013 178.832 126.81C173.024 133.748 166.702 142.216 167.061 142.574C167.22 142.733 176.228 142.969 187.079 143.101C199.899 143.258 207.344 143.512 208.337 143.831C209.178 144.101 210.358 144.466 210.958 144.641C211.963 144.936 213.117 145.513 215.779 147.05C218.706 148.741 224.936 154.872 224.936 156.062C224.936 156.278 225.083 156.52 225.263 156.6C225.868 156.867 227.892 161.38 228.926 164.771C229.676 167.227 229.68 178.019 228.932 178.762C228.656 179.036 228.43 179.807 228.43 180.476C228.43 181.144 228.234 181.69 227.993 181.69C227.753 181.69 227.557 181.92 227.557 182.202C227.557 183.021 225.689 186.896 225.295 186.896C225.097 186.896 224.936 187.152 224.936 187.466C224.936 187.778 224.592 188.413 224.171 188.876C223.75 189.338 222.841 190.4 222.151 191.235C219.279 194.711 213.883 197.961 207.796 199.882C206.822 200.19 200.917 200.548 193.163 200.769C181.124 201.113 177.954 201.454 176.888 202.516C176.768 202.635 176.095 203.025 175.392 203.383C172.361 204.926 169.197 208.894 167.334 213.49C166.696 215.061 166.696 222.506 167.334 224.077C169.845 230.274 172.735 233.148 179.29 235.972C179.771 236.179 192.056 236.428 206.59 236.524C232.201 236.695 236.925 236.872 237.8 237.698C238.028 237.913 238.667 238.089 239.219 238.089C239.772 238.089 240.224 238.285 240.224 238.523C240.224 238.762 240.617 238.957 241.097 238.957C241.578 238.957 241.971 239.105 241.971 239.285C241.971 239.466 242.584 239.882 243.333 240.212C244.082 240.542 245.805 241.906 247.161 243.246C256.136 252.112 255.209 267.408 245.239 274.972C242.825 276.803 241.553 277.569 240.92 277.569C240.537 277.569 240.224 277.716 240.224 277.896C240.224 279.4 238.079 279.467 182.785 279.714L128.621 279.955L128.465 281.473C128.302 283.049 129.056 291.353 129.706 295.139C129.91 296.332 130.31 298.87 130.595 300.779C132.355 312.595 137.869 333.452 141.491 341.994C141.693 342.471 142.307 344.033 142.857 345.465C144.109 348.731 143.75 348.544 149.456 348.903C152.104 349.069 154.593 349.368 154.987 349.568C155.381 349.767 156.582 350.292 157.658 350.735C161.679 352.389 166.824 357.889 167.54 361.3C167.666 361.896 167.952 362.724 168.178 363.138C168.731 364.151 168.708 372.89 168.152 373.23C167.912 373.378 167.715 373.885 167.715 374.358C167.715 375.623 166.111 378.587 164.174 380.901C163.239 382.017 162.473 383.049 162.473 383.195C162.473 383.573 167.423 390.869 170.283 394.705C179.854 407.544 188.936 417.342 202.671 429.644C211.974 437.974 225.556 447.428 240.628 456.058C245.679 458.952 261.157 466.289 262.208 466.289C262.513 466.289 262.949 466.455 263.178 466.658C263.69 467.112 266.098 468.064 272.329 470.277C282.733 473.971 292.532 476.664 302.686 478.623C305.929 479.249 309.422 479.951 310.446 480.183C311.47 480.416 312.834 480.606 313.477 480.606C315.375 480.606 319.845 481.502 321.141 482.141C321.802 482.468 322.342 482.548 322.342 482.32C322.342 482.094 322.644 481.907 323.013 481.907C323.382 481.907 324.168 481.592 324.76 481.207C325.352 480.821 325.837 480.657 325.837 480.84C325.837 481.023 326.181 480.874 326.601 480.507C327.021 480.14 327.857 479.695 328.457 479.516C329.058 479.337 330.071 478.826 330.709 478.38C331.347 477.933 332.166 477.569 332.528 477.569C332.892 477.569 333.255 477.422 333.335 477.243C333.415 477.064 334.414 476.448 335.555 475.874C336.696 475.3 337.63 474.665 337.63 474.464C337.63 474.263 338.023 474.098 338.504 474.098C338.984 474.098 339.377 473.925 339.377 473.711C339.377 473.498 339.885 473.198 340.505 473.043C341.127 472.889 342.454 472.237 343.454 471.595C346.482 469.653 346.973 469.372 348.223 468.863C348.883 468.594 349.424 468.221 349.424 468.034C349.424 467.849 350.013 467.453 350.734 467.157C351.455 466.861 352.045 466.446 352.045 466.236C352.045 466.026 352.302 465.855 352.618 465.855C352.932 465.855 353.613 465.465 354.128 464.987C354.644 464.51 355.27 464.12 355.52 464.12C355.77 464.12 355.976 463.925 355.976 463.686C355.976 463.447 356.254 463.252 356.595 463.252C356.935 463.252 357.279 463.095 357.359 462.902C357.53 462.49 361.459 459.781 361.886 459.781C362.046 459.781 362.747 459.175 363.445 458.434C364.142 457.692 364.712 457.231 364.712 457.408C364.712 457.586 365.23 457.216 365.864 456.587C366.497 455.958 367.211 455.443 367.453 455.443C367.693 455.443 368.711 454.711 369.714 453.816C370.718 452.921 371.984 451.896 372.529 451.538C373.075 451.18 374.536 449.936 375.778 448.775C377.019 447.613 378.688 446.163 379.488 445.552C380.287 444.942 382.494 442.867 384.392 440.941C386.291 439.015 388.047 437.243 388.295 437.005C390.385 434.994 396.308 428.977 397.048 428.111C398.712 426.164 402.045 422.377 402.604 421.798C402.904 421.486 403.15 421.036 403.15 420.799C403.15 420.56 403.668 419.96 404.301 419.466C404.934 418.971 405.284 418.567 405.078 418.567C404.871 418.567 405.174 418.239 405.749 417.839C407.543 416.59 406 416.46 388.954 416.423C361.071 416.365 355.395 415.832 350.171 412.784C344.247 409.327 339.814 401.727 339.814 395.025C339.814 392.058 338.419 389.812 335.861 388.664C333.873 387.772 333.485 387.764 286.848 387.764C255.979 387.764 239.745 387.615 239.569 387.33C239.42 387.092 238.83 386.896 238.258 386.896C237.686 386.896 237.096 386.701 236.948 386.462C236.799 386.224 236.296 386.029 235.83 386.029C235.363 386.029 234.982 385.833 234.982 385.595C234.982 385.356 234.697 385.161 234.35 385.161C234.002 385.161 232.455 383.941 230.913 382.449C227.808 379.445 226.517 377.288 224.996 372.549C224.383 370.638 224.34 364.919 224.936 364.554C225.176 364.406 225.373 363.723 225.373 363.035C225.373 362.348 225.569 361.664 225.809 361.517C226.05 361.369 226.246 360.957 226.246 360.599C226.246 358.462 232.17 352.19 235.561 350.737C236.324 350.409 237.537 349.882 238.258 349.566C239.443 349.045 441.174 348.864 442.042 349.383C442.171 349.46 442.32 349.009 442.372 348.381C442.424 347.752 442.663 347.044 442.901 346.807C443.14 346.57 443.336 345.72 443.336 344.918C443.336 344.058 443.515 343.571 443.773 343.729C444.032 343.889 444.209 343.381 444.209 342.479C444.209 341.644 444.406 340.84 444.646 340.692C444.886 340.545 445.083 339.741 445.083 338.906C445.083 338.071 445.241 337.485 445.436 337.605C445.63 337.723 445.836 337.003 445.894 336.003C445.953 335.003 446.187 334.12 446.415 334.041C446.643 333.96 446.83 333.033 446.83 331.98C446.83 330.926 447.027 330.063 447.267 330.063C447.507 330.063 447.704 329.282 447.704 328.328C447.704 327.374 447.883 326.593 448.101 326.593C448.321 326.593 448.605 325.47 448.732 324.098C448.861 322.726 449.18 320.335 449.442 318.784C451.424 307.048 451.711 301.5 451.531 278.436C451.418 263.851 451.215 257.119 450.872 256.495C450.599 256 450.333 254.284 450.281 252.682C450.228 251.08 450.021 249.667 449.818 249.544C449.616 249.419 449.451 248.267 449.451 246.983C449.451 245.699 449.254 244.528 449.014 244.38C448.774 244.233 448.577 243.256 448.577 242.211C448.577 240.379 447.972 239.241 447.596 240.365C447.359 241.071 320.699 241.403 319.989 240.698C319.745 240.456 318.896 240.259 318.1 240.259C317.304 240.259 316.311 240.076 315.894 239.853C315.477 239.63 314.103 239.009 312.842 238.474C311.581 237.939 310.549 237.34 310.549 237.145C310.549 236.948 310.303 236.786 310.003 236.784C308.146 236.767 301.376 227.974 301.376 225.58C301.376 225.159 301.142 224.582 300.856 224.298C299.919 223.367 300.246 213.141 301.299 210.415C302.926 206.207 307.648 199.912 309.177 199.912C309.451 199.912 309.675 199.746 309.675 199.543C309.675 199.213 312.842 197.548 316.445 195.983C317.415 195.562 322.185 195.346 334.791 195.152L351.826 194.891L354.159 193.687C363.706 188.756 365.932 176.715 358.693 169.157C357.754 168.176 356.758 167.374 356.48 167.374C356.203 167.374 355.975 167.227 355.972 167.048C355.968 166.659 353.853 165.638 353.049 165.638C352.737 165.638 352.481 165.443 352.481 165.204C352.481 164.936 350.227 164.771 346.592 164.771C335.654 164.771 330.498 163.472 325.07 159.349C321.997 157.013 317.537 150.763 317.537 148.79C317.537 148.369 317.359 147.839 317.143 147.612C315.955 146.37 315.895 137.265 317.055 134.185C319.499 127.692 323.839 122.678 329.356 119.974C333.614 117.888 336.356 117.62 357.068 117.261C372.99 116.984 374.321 116.897 374.321 116.125C374.321 115.889 374.125 115.816 373.885 115.964C373.644 116.111 373.448 115.895 373.448 115.483C373.448 115.071 373.329 114.853 373.182 114.997C372.905 115.273 372.683 115.121 370.395 113.09C369.62 112.404 368.702 111.842 368.352 111.842C368.003 111.842 367.839 111.647 367.988 111.408C368.136 111.17 368.052 110.974 367.8 110.974C367.372 110.974 366.246 110.171 364.913 108.914C364.596 108.615 364.126 108.372 363.87 108.372C363.612 108.372 363.401 108.209 363.401 108.012C363.401 107.813 362.864 107.374 362.208 107.035C361.552 106.696 360.441 105.882 359.741 105.226C359.04 104.57 358.203 104.033 357.88 104.033C357.558 104.033 357.048 103.643 356.748 103.166C356.448 102.688 355.857 102.298 355.434 102.298C355.012 102.298 354.665 102.126 354.665 101.917C354.665 101.707 354.076 101.292 353.355 100.996C352.634 100.7 352.045 100.286 352.045 100.076C352.045 99.8662 351.738 99.6948 351.363 99.6948C350.989 99.6948 350.804 99.4996 350.953 99.261C351.101 99.0224 350.828 98.8271 350.345 98.8271C349.864 98.8271 348.933 98.3347 348.279 97.7317C347.625 97.1297 346.632 96.5235 346.072 96.3835C345.513 96.2436 345.056 95.9443 345.056 95.7176C345.056 95.4909 344.859 95.4258 344.619 95.5733C344.379 95.7208 344.182 95.6525 344.182 95.4204C344.182 94.9714 340.759 93.1872 339.895 93.1872C339.61 93.1872 339.374 93.0408 339.371 92.8618C339.366 92.6829 338.335 92.0484 337.078 91.4519C335.82 90.8553 334.693 90.2545 334.573 90.1156C334.452 89.9768 333.715 89.5874 332.935 89.2501C332.154 88.9128 331.515 88.4779 331.515 88.2838C331.515 88.0885 331.34 88.0365 331.127 88.1677C330.914 88.2989 330.497 88.1146 330.2 87.7599C329.903 87.4041 329.292 87.1135 328.841 87.1135C328.39 87.1135 328.021 86.9063 328.021 86.6536C328.021 86.4009 327.84 86.3054 327.619 86.441C327.398 86.5766 326.921 86.3933 326.558 86.0332C326.196 85.6731 325.602 85.3781 325.238 85.3781C324.875 85.3781 324.456 85.1829 324.308 84.9443C324.159 84.7057 323.656 84.5104 323.19 84.5104C322.723 84.5104 322.342 84.3152 322.342 84.0766C322.342 83.838 321.949 83.6428 321.469 83.6428C320.988 83.6428 320.595 83.4475 320.595 83.2089C320.595 82.9703 320.116 82.7751 319.529 82.7751C318.943 82.7751 318.341 82.5799 318.193 82.3412C318.044 82.1026 317.541 81.9074 317.074 81.9074C316.608 81.9074 316.227 81.7122 316.227 81.4736C316.227 81.2349 315.748 81.0397 315.161 81.0397C314.575 81.0397 313.973 80.8445 313.825 80.6059C313.676 80.3673 313.189 80.172 312.743 80.172C312.297 80.172 311.867 80.0245 311.786 79.8445C311.706 79.6644 310.265 79.0603 308.583 78.5018C306.901 77.9443 305.231 77.377 304.87 77.2425C304.51 77.1081 303.95 77.0419 303.626 77.095C303.302 77.1493 302.67 76.8629 302.221 76.4584C301.754 76.0386 301.024 75.8239 300.516 75.9551C300.028 76.082 299.629 76.0094 299.629 75.7935C299.629 75.5766 299.039 75.3998 298.318 75.3998C297.597 75.3998 297.008 75.2046 297.008 74.966C297.008 74.7274 296.418 74.5321 295.697 74.5321C294.977 74.5321 294.387 74.3369 294.387 74.0983C294.387 73.8597 293.711 73.6645 292.884 73.6645C292.058 73.6645 291.259 73.4692 291.111 73.2306C290.962 72.992 290.262 72.7968 289.556 72.7968C288.849 72.7968 288.272 72.6384 288.272 72.4443C288.272 72.2501 287.338 72.0441 286.197 71.9866C285.056 71.9291 284.057 71.6981 283.977 71.4725C283.896 71.2458 283.073 71.0614 282.146 71.0614C281.22 71.0614 280.339 70.8662 280.191 70.6276C280.042 70.389 279.158 70.1937 278.225 70.1937C277.293 70.1937 276.408 69.9985 276.26 69.7599C276.111 69.5213 275.03 69.3261 273.857 69.3261C272.685 69.3261 271.603 69.1308 271.455 68.8922C271.306 68.6536 270.104 68.4584 268.783 68.4584C267.292 68.4584 266.483 68.2935 266.65 68.0245C266.822 67.749 265.636 67.5907 263.4 67.5907C261.344 67.5907 259.88 67.4107 259.88 67.1569C259.88 66.3054 257.83 66.7415 256.822 67.8076Z" fill="#A3E4F3"/>
<path fill-rule="evenodd" clip-rule="evenodd" d="M373.996 117.111C373.643 117.461 368.267 117.656 355.672 117.772C339.066 117.926 334.538 118.208 332.061 119.241C329.445 120.332 328.531 120.805 326.741 121.99C314.658 129.989 313.058 146.916 323.412 157.2C328.705 162.457 332.723 163.889 342.217 163.903C353.205 163.92 358.832 166.515 361.976 173.013C362.496 174.087 362.931 174.644 362.943 174.25C363.007 172.145 358.349 167.05 354.884 165.438C351.071 163.662 349.888 163.469 342.849 163.469C335.167 163.469 331.862 162.727 327.686 160.062C310.526 149.115 315.198 123.205 335.098 118.966C337.138 118.532 342.32 118.376 355.157 118.365C373.024 118.35 375.195 118.224 375.195 117.211C375.195 116.485 374.671 116.441 373.996 117.111ZM65.504 142.585C65.504 143.444 70.8472 143.509 135.119 143.439L202.004 143.364L135.434 143.049C98.8209 142.876 68.1084 142.614 67.1846 142.468C66.2597 142.32 65.504 142.374 65.504 142.585ZM204.406 143.946C205.007 144.137 206.088 144.293 206.809 144.293C208.083 144.293 208.088 144.284 207.027 143.946C206.426 143.755 205.345 143.599 204.625 143.599C203.35 143.599 203.345 143.609 204.406 143.946ZM208.556 144.814C208.704 145.052 209.257 145.244 209.783 145.241C210.561 145.236 210.618 145.156 210.085 144.814C209.224 144.262 208.212 144.262 208.556 144.814ZM210.958 145.444C210.958 145.552 211.695 145.98 212.596 146.393C217.964 148.858 226.246 157.122 226.246 160.012C226.246 160.25 226.443 160.831 226.683 161.305C226.923 161.779 227.316 162.556 227.557 163.03C227.797 163.504 228.008 164.333 228.024 164.874C228.041 165.414 228.237 166.246 228.46 166.723C229.139 168.18 228.412 163.967 227.68 162.212C225.375 156.678 223.689 154.201 219.752 150.569C217.104 148.123 210.958 144.543 210.958 145.444ZM229.02 171.712C229.02 173.74 229.095 174.57 229.187 173.556C229.279 172.542 229.279 170.882 229.187 169.868C229.095 168.854 229.02 169.684 229.02 171.712ZM363.183 179.738C363.183 182.198 363.327 183.985 363.504 183.71C363.681 183.434 363.825 181.647 363.825 179.738C363.825 177.829 363.681 176.042 363.504 175.766C363.327 175.491 363.183 177.278 363.183 179.738ZM228.266 177.569C225.568 189.146 217.328 197.017 205.367 199.442C204.076 199.704 198.293 199.912 192.293 199.912C179.358 199.912 174.609 201.22 170.753 205.845C169.223 207.68 167.278 210.737 167.278 211.305C167.278 211.64 167.137 212.054 166.966 212.225C164.542 214.633 165.568 224.265 168.752 228.979C170.737 231.917 175.45 235.92 176.925 235.92C177.22 235.92 176.299 235.165 174.881 234.242C161.154 225.311 164.207 205.568 180.013 201.051C181.989 200.486 184.651 200.342 193.336 200.33C207.19 200.311 210.472 199.592 217.085 195.131C222.761 191.303 229.617 180.638 228.745 176.995C228.631 176.521 228.464 176.72 228.266 177.569ZM361.433 187.421C360.015 190.121 357.719 192.294 354.547 193.936C353.291 194.588 352.558 195.123 352.918 195.126C355.705 195.148 364.234 186.711 362.831 185.318C362.725 185.212 362.095 186.159 361.433 187.421ZM335.228 195.573L320.377 195.807L335.446 195.877C343.734 195.915 350.909 195.778 351.389 195.573C352.172 195.239 352.149 195.208 351.171 195.269C350.57 195.307 343.396 195.444 335.228 195.573ZM315.506 196.865C294.668 204.228 295.883 233.068 317.319 239.892C318.965 240.416 447.12 240.52 447.668 239.998C447.767 239.903 418.639 239.825 382.937 239.825C340.134 239.825 317.934 239.677 317.756 239.391C317.607 239.152 317.095 238.957 316.617 238.957C315.789 238.957 313.791 238.113 311.422 236.764C301.903 231.34 298.242 218.083 303.436 207.856C304.634 205.498 310.087 199.478 311.024 199.478C311.289 199.478 312.027 199.124 312.665 198.691C313.303 198.259 314.709 197.649 315.79 197.337C316.871 197.024 318.247 196.613 318.848 196.422L319.94 196.075L318.848 196.073C318.247 196.072 316.744 196.428 315.506 196.865ZM177.948 236.304C178.521 237.224 182.531 237.371 208.119 237.418L235.201 237.467L208.119 237.223C188.519 237.045 180.616 236.831 179.512 236.448C177.689 235.817 177.643 235.813 177.948 236.304ZM236.729 238.146C246.306 241.087 252.454 248.954 252.454 258.263C252.454 267.524 246.256 275.454 236.729 278.38L235.201 278.851L236.921 278.609C242.917 277.765 249.712 271.426 251.981 264.558C255.652 253.455 247.738 239.433 236.948 237.92L235.201 237.675L236.729 238.146ZM102.438 279.196C74.8657 279.321 76.4 279.161 76.483 281.907L76.5289 283.426L76.9755 281.582L77.4221 279.738L96.2515 279.675C106.608 279.639 142.009 279.484 174.922 279.328L234.764 279.044L181.256 279.062C151.826 279.072 116.358 279.132 102.438 279.196ZM76.0527 285.234C76.0167 285.751 75.8606 286.532 75.7044 286.969C75.4871 287.581 75.545 287.651 75.9567 287.275C76.2515 287.006 76.4076 286.225 76.305 285.539C76.1729 284.661 76.0986 284.571 76.0527 285.234ZM75.1639 288.704C75.1366 288.983 74.987 289.569 74.8308 290.006C74.6113 290.623 74.6703 290.689 75.0907 290.304C75.3888 290.032 75.5384 289.446 75.4238 289.003C75.3091 288.56 75.1923 288.426 75.1639 288.704ZM71.0568 297.312C70.1931 298.633 69.6689 299.602 69.8917 299.466C70.5141 299.083 73.0399 295.32 72.8204 295.102C72.7134 294.997 71.9195 295.991 71.0568 297.312ZM66.8144 302.417C65.4931 303.665 63.7241 305.234 62.8832 305.903C61.3795 307.098 61.3872 307.097 63.32 305.831C65.0432 304.702 69.9583 300.114 69.4188 300.137C69.3075 300.141 68.1357 301.167 66.8144 302.417ZM58.5152 308.371C57.1939 309.064 56.3531 309.641 56.6457 309.652C57.2037 309.674 60.1805 308.14 60.8958 307.462C61.5477 306.845 61.0934 307.019 58.5152 308.371ZM54.3656 310.179C50.8013 311.355 48.6949 311.563 37.7672 311.817L25.9736 312.093L37.2999 312.184C43.5286 312.235 49.2289 312.094 49.9671 311.871C50.7042 311.649 52.1925 311.225 53.2736 310.929C54.3547 310.632 55.426 310.228 55.6542 310.031C56.1445 309.608 56.0746 309.615 54.3656 310.179ZM17.1338 312.587C17.7989 312.687 18.7817 312.685 19.3178 312.582C19.8551 312.479 19.3124 312.396 18.1112 312.4C16.91 312.403 16.4699 312.487 17.1338 312.587ZM135.249 349.141C153.434 349.531 154.939 349.764 159.731 352.923C165.333 356.616 169.258 365.241 167.799 370.656C167.513 371.721 167.278 372.907 167.278 373.291C167.278 376.29 161.742 383.244 157.887 385.086C153.173 387.339 153.267 387.33 134.117 387.33C114.12 387.33 113.616 387.274 108.974 384.497C105.745 382.565 105.267 382.556 108.143 384.479C112.906 387.665 113.687 387.764 134.014 387.764C151.524 387.764 153.577 387.638 156.025 386.409C156.442 386.2 157.081 386.029 157.445 386.029C157.808 386.029 158.105 385.833 158.105 385.595C158.105 385.356 158.421 385.161 158.805 385.161C161.077 385.161 166.619 377.506 167.954 372.523C169.991 364.921 165.322 354.601 158.413 351.43C153.403 349.131 153.14 349.101 135.61 348.943L119.012 348.794L135.249 349.141ZM113.602 349.546C113.232 349.779 113.826 349.838 115.131 349.699C116.305 349.573 117.347 349.4 117.447 349.312C117.842 348.966 114.169 349.19 113.602 349.546ZM238.289 350.084C232.355 352.075 228.246 356.176 225.745 362.601C221.92 372.43 230.628 386.249 241.202 387.127C242.886 387.267 243.208 387.215 242.408 386.933C241.807 386.722 240.773 386.53 240.109 386.506C239.445 386.482 238.561 386.284 238.144 386.066C237.726 385.846 236.69 385.369 235.842 385.005C234.993 384.64 233.814 383.941 233.221 383.449C220.265 372.721 224.234 354.179 240.38 349.997C242.562 349.432 437.892 349.741 440.777 350.314C441.464 350.451 442.025 350.375 442.025 350.146C442.025 348.861 242.113 348.8 238.289 350.084ZM107.87 352.345C105.606 353.996 101.748 358.12 101.781 358.852C101.794 359.124 102.138 358.862 102.546 358.267C104.023 356.112 106.378 353.779 108.517 352.349C109.718 351.545 110.508 350.892 110.271 350.898C110.034 350.904 108.953 351.556 107.87 352.345ZM100.179 362.359C100.046 362.703 100.014 363.338 100.108 363.769C100.215 364.259 100.365 364.024 100.507 363.144C100.744 361.666 100.59 361.295 100.179 362.359ZM99.403 365.457C99.0328 366.414 99.083 370.521 99.4718 371.127C99.6487 371.403 99.7983 370.085 99.8048 368.199C99.8179 364.511 99.8037 364.418 99.403 365.457ZM100.011 373.204C100.011 373.787 100.172 374.363 100.369 374.483C100.566 374.605 100.641 374.127 100.538 373.425C100.308 371.874 100.011 371.75 100.011 373.204ZM101.758 377.573C101.758 378.254 104.713 381.958 104.998 381.634C105.076 381.545 104.378 380.529 103.449 379.375C102.518 378.221 101.758 377.41 101.758 377.573ZM335.715 388.16C338.585 389.454 339.746 391.357 340.271 395.62C341.464 405.326 346.335 411.549 354.986 414.423C358.153 415.477 361.961 415.644 394.196 416.141C403.359 416.283 404.576 416.248 399.656 415.979C396.172 415.788 385.853 415.504 376.724 415.345C358.802 415.036 356.264 414.776 352.263 412.834C345.476 409.543 341.775 403.892 340.707 395.189C340.462 393.189 340.023 391.237 339.732 390.851C338.146 388.746 336.111 387.323 334.71 387.34C334.275 387.345 334.727 387.714 335.715 388.16Z" fill="#94DFB5"/>
<path fill-rule="evenodd" clip-rule="evenodd" d="M369.176 116.938C366.707 117.016 358.943 117.251 351.922 117.461L339.159 117.844L356.333 117.721C368.393 117.634 373.653 117.452 374.001 117.106C374.273 116.836 374.309 116.656 374.081 116.705C373.853 116.756 371.646 116.861 369.176 116.938ZM333.337 118.346C330.745 118.955 326.376 121.441 324.004 123.656C322.73 124.845 322.08 125.555 322.561 125.23C323.041 124.907 323.729 124.337 324.089 123.964C326.086 121.894 330.506 119.606 334.573 118.536C336.738 117.966 335.66 117.801 333.337 118.346ZM320.098 128.004C318.42 130.689 317.44 132.715 317.698 132.97C317.821 133.094 318.219 132.492 318.579 131.634C318.941 130.775 319.846 129.192 320.592 128.115C321.338 127.04 321.791 126.159 321.598 126.16C321.407 126.16 320.731 126.99 320.098 128.004ZM316.983 134.23C316.807 134.404 316.676 135.05 316.691 135.667L316.719 136.788L317.141 135.74C317.595 134.612 317.501 133.715 316.983 134.23ZM316.051 139.713C315.855 140.607 315.855 141.876 316.05 142.533L316.406 143.729L316.562 142.319C316.648 141.544 316.65 140.275 316.564 139.499L316.409 138.089L316.051 139.713ZM201.821 143.237C201.922 143.324 203.268 143.504 204.813 143.637C206.568 143.788 207.388 143.73 206.997 143.485C206.42 143.122 201.413 142.882 201.821 143.237ZM209.866 144.762C211.067 145.194 212.906 145.982 213.952 146.513C214.999 147.046 215.747 147.307 215.614 147.096C215.153 146.353 209.611 143.936 208.426 143.961C208.017 143.97 208.665 144.33 209.866 144.762ZM316.694 146.415C316.678 146.938 316.86 147.486 317.101 147.634C317.617 147.951 317.617 147.526 317.101 146.332C316.739 145.496 316.724 145.498 316.694 146.415ZM219.694 150.119C219.694 150.262 220.71 151.421 221.95 152.695C223.191 153.968 223.799 154.423 223.301 153.708C222.327 152.308 219.694 149.688 219.694 150.119ZM322.068 156.495C323.402 158.121 325.989 160.281 327.365 160.919C327.881 161.159 327.792 161.011 327.147 160.559C326.546 160.138 324.883 158.717 323.452 157.402C321.799 155.884 321.294 155.553 322.068 156.495ZM332.825 163.469C333.186 163.7 333.874 163.879 334.354 163.866L335.228 163.842L334.354 163.469C333.048 162.912 331.957 162.912 332.825 163.469ZM338.285 164.337C340.065 164.787 351.711 164.787 350.297 164.337C349.697 164.146 346.454 163.993 343.09 163.997C339.408 164.003 337.496 164.137 338.285 164.337ZM228.703 166.072C229.058 168.503 229.306 168.849 229.297 166.904C229.294 166.088 229.094 165.128 228.854 164.771C228.549 164.316 228.503 164.708 228.703 166.072ZM357.304 167.445C357.294 167.604 357.983 168.445 358.834 169.315C365.945 176.588 363.6 188.812 354.159 193.687L351.826 194.891L334.791 195.152C323.917 195.32 317.36 195.587 316.664 195.892C316.063 196.156 315.199 196.489 314.745 196.633C314.29 196.777 314.013 196.991 314.13 197.107C314.248 197.223 315.209 196.99 316.268 196.588C317.901 195.969 320.741 195.819 335.009 195.6L351.826 195.341L354.27 194.119C364.075 189.211 366.487 177.044 359.21 169.195C358.171 168.074 357.313 167.287 357.304 167.445ZM229.444 171.712C229.444 173.263 229.523 173.897 229.619 173.122C229.717 172.346 229.717 171.077 229.619 170.302C229.523 169.526 229.444 170.161 229.444 171.712ZM228.94 176.34C228.9 177.096 228.74 178.072 228.584 178.509C228.368 179.118 228.427 179.19 228.832 178.819C229.142 178.536 229.291 177.632 229.189 176.65C229.033 175.153 229.006 175.12 228.94 176.34ZM225.712 185.623C225.307 186.324 225.132 186.896 225.322 186.896C225.682 186.896 226.818 184.717 226.581 184.482C226.508 184.409 226.117 184.922 225.712 185.623ZM223.893 188.402C223.494 189.005 223.322 189.499 223.511 189.499C223.935 189.499 225.066 187.749 224.807 187.492C224.702 187.388 224.291 187.798 223.893 188.402ZM221.202 191.711C219.209 193.763 215.109 196.647 212.854 197.583C212 197.936 211.4 198.326 211.523 198.447C212.23 199.15 219.745 194.088 222.073 191.342C223.729 189.387 223.272 189.581 221.202 191.711ZM311.313 198.291C310.412 198.789 309.675 199.359 309.675 199.559C309.675 199.844 312.717 198.21 313.57 197.467C314.1 197.006 312.74 197.502 311.313 198.291ZM209.211 199.044C208.629 199.418 208.629 199.465 209.211 199.465C209.571 199.465 210.161 199.275 210.521 199.044C211.103 198.67 211.103 198.623 210.521 198.623C210.161 198.623 209.571 198.813 209.211 199.044ZM205.717 199.912L204.625 200.259L205.717 200.295C206.317 200.316 207.103 200.143 207.464 199.912C208.298 199.376 207.4 199.376 205.717 199.912ZM306.399 202.293C304.152 204.729 301.381 209.172 301.392 210.324C301.395 210.682 301.998 209.744 302.732 208.241C303.466 206.738 305.252 204.249 306.703 202.71C308.153 201.171 309.168 199.915 308.961 199.919C308.753 199.923 307.6 200.992 306.399 202.293ZM181.142 200.709C180.42 200.992 197.681 200.903 200.038 200.611C200.639 200.536 196.806 200.46 191.521 200.441C186.235 200.422 181.565 200.543 181.142 200.709ZM174.568 203.417C172.368 204.866 168.574 208.81 168.611 209.611C168.625 209.883 168.969 209.623 169.376 209.032C170.625 207.221 174.218 203.91 175.589 203.307C176.304 202.993 176.888 202.589 176.888 202.408C176.888 201.918 176.771 201.969 174.568 203.417ZM300.8 211.791C300.636 212.216 300.514 212.89 300.529 213.288C300.548 213.767 300.7 213.658 300.979 212.964C301.211 212.388 301.333 211.714 301.25 211.467C301.167 211.221 300.965 211.366 300.8 211.791ZM167.06 212.927C166.896 213.44 166.86 213.957 166.98 214.076C167.1 214.196 167.333 213.874 167.497 213.361C167.66 212.848 167.696 212.33 167.576 212.211C167.456 212.092 167.224 212.414 167.06 212.927ZM166.158 217.083C165.993 218.175 166.056 219.883 166.298 220.879C166.703 222.551 166.741 222.401 166.789 218.892C166.847 214.701 166.617 214.043 166.158 217.083ZM300.196 218.133C300.196 219.445 300.278 219.982 300.379 219.326C300.478 218.67 300.478 217.596 300.379 216.94C300.278 216.284 300.196 216.82 300.196 218.133ZM300.502 223.024C300.502 223.646 300.706 224.28 300.956 224.434C301.255 224.618 301.308 224.29 301.114 223.484C300.712 221.822 300.502 221.664 300.502 223.024ZM166.854 223.773C166.854 224.131 167.046 224.716 167.278 225.074C167.655 225.652 167.702 225.652 167.702 225.074C167.702 224.716 167.511 224.131 167.278 223.773C166.901 223.195 166.854 223.195 166.854 223.773ZM169.215 228.814C170.469 231.435 178.374 237.191 179.367 236.205C179.514 236.06 179.262 235.82 178.806 235.673C175.514 234.609 171.578 231.64 169.343 228.535C168.57 227.461 168.57 227.461 169.215 228.814ZM302.249 227.915C302.249 229.11 308.734 236.787 309.744 236.788C309.902 236.788 308.798 235.563 307.292 234.068C305.786 232.572 304.13 230.522 303.611 229.512C302.763 227.861 302.249 227.259 302.249 227.915ZM181.474 236.788C182.195 236.97 194.283 237.119 208.337 237.119C222.391 237.119 233.3 236.97 232.58 236.788C231.859 236.606 219.771 236.457 205.717 236.457C191.663 236.457 180.753 236.606 181.474 236.788ZM310.549 237.172C310.549 237.529 312.742 238.658 312.979 238.422C313.052 238.35 312.536 237.961 311.831 237.559C311.125 237.157 310.549 236.983 310.549 237.172ZM235.018 237.377C235.502 237.788 238.058 238.036 237.817 237.649C237.671 237.414 236.94 237.222 236.194 237.222C235.447 237.222 234.919 237.291 235.018 237.377ZM316.009 239.825C316.157 240.063 316.71 240.245 317.236 240.228C318.159 240.199 318.161 240.184 317.319 239.825C316.117 239.312 315.69 239.312 316.009 239.825ZM320.007 240.801C320.29 241.256 445.49 241.124 446.83 240.667C447.445 240.457 419.948 240.335 383.863 240.386C348.631 240.435 319.896 240.622 320.007 240.801ZM246.067 242.673C255.004 251.652 255.32 264.098 246.836 272.959C245.463 274.392 245.188 274.837 245.982 274.339C247.363 273.471 250.272 269.749 251.257 267.59C255.454 258.392 253.104 247.524 245.698 241.876C244.006 240.585 244.021 240.617 246.067 242.673ZM242.189 276.518C241.228 277.088 240.699 277.558 241.011 277.561C241.324 277.566 242.304 277.081 243.187 276.484C245.215 275.115 244.513 275.139 242.189 276.518ZM235.856 278.87L234.327 279.19L235.856 279.24C236.697 279.268 237.679 279.101 238.04 278.87C238.834 278.361 238.294 278.361 235.856 278.87ZM128.403 279.63C128.403 279.923 165.198 279.921 215.326 279.624C225.777 279.562 210.494 279.465 181.365 279.408C152.236 279.351 128.403 279.451 128.403 279.63ZM144.128 348.827C144.128 349.006 145.553 349.125 147.295 349.094C150.63 349.031 150.266 348.837 146.421 348.627C145.16 348.558 144.128 348.648 144.128 348.827ZM250.598 349.043C254.982 349.114 262.157 349.114 266.541 349.043C270.925 348.972 267.338 348.915 258.569 348.915C249.801 348.915 246.213 348.972 250.598 349.043ZM413.197 349.152L384.149 349.379L413.061 349.482C431.979 349.55 442.067 349.436 442.244 349.152C442.392 348.914 442.453 348.765 442.379 348.823C442.305 348.879 429.173 349.028 413.197 349.152ZM153.519 349.586C154.721 350.099 155.148 350.099 154.829 349.586C154.681 349.348 154.128 349.166 153.602 349.183C152.679 349.212 152.677 349.227 153.519 349.586ZM238.477 349.586C237.608 350.144 238.699 350.144 240.005 349.586L240.879 349.213L240.005 349.189C239.525 349.176 238.837 349.355 238.477 349.586ZM158.979 351.631C159.58 352.05 161.23 353.47 162.645 354.786C164.061 356.102 164.997 356.756 164.725 356.24C164.095 355.045 160.904 352.304 159.197 351.492L157.887 350.868L158.979 351.631ZM232.361 352.766C229.901 354.689 228.514 356.094 229.076 356.094C229.248 356.094 229.911 355.542 230.549 354.867C231.185 354.192 232.542 353.093 233.563 352.423C234.584 351.754 235.419 351.135 235.419 351.047C235.419 350.574 234.516 351.082 232.361 352.766ZM166.36 359.789C166.984 361.09 167.558 361.978 167.631 361.761C167.789 361.298 166.157 357.996 165.601 357.656C165.392 357.528 165.734 358.487 166.36 359.789ZM167.977 364.191C168.379 365.854 168.589 366.011 168.589 364.651C168.589 364.03 168.384 363.395 168.134 363.241C167.836 363.058 167.783 363.386 167.977 364.191ZM224.791 364.626C224.394 365.019 224.431 371.369 224.833 371.996C225.01 372.272 225.154 370.661 225.154 368.417C225.154 366.173 225.138 364.337 225.118 364.337C225.097 364.337 224.95 364.467 224.791 364.626ZM168.211 371.351C168.179 371.749 168.025 372.432 167.869 372.869C167.651 373.483 167.709 373.551 168.124 373.172C168.42 372.902 168.574 372.218 168.466 371.653C168.359 371.089 168.243 370.953 168.211 371.351ZM166.327 376.829C165.683 378.19 164.798 379.702 164.361 380.189C162.659 382.084 162.345 382.743 163.941 381.071C165.637 379.293 167.88 375.441 167.631 374.734C167.557 374.524 166.97 375.467 166.327 376.829ZM227.636 378.87C227.909 379.467 228.303 379.955 228.51 379.955C228.717 379.955 228.566 379.467 228.171 378.87C227.778 378.274 227.385 377.786 227.298 377.786C227.21 377.786 227.362 378.274 227.636 378.87ZM230.177 381.907C230.992 382.742 231.757 383.426 231.878 383.426C231.998 383.426 231.429 382.742 230.614 381.907C229.8 381.072 229.034 380.389 228.914 380.389C228.794 380.389 229.363 381.072 230.177 381.907ZM232.361 383.746C232.361 384.168 234.124 385.29 234.383 385.033C234.487 384.929 234.075 384.521 233.466 384.125C232.859 383.729 232.361 383.558 232.361 383.746ZM239.636 387.439C239.748 387.618 261.105 387.718 287.097 387.662C313.089 387.606 328.359 387.509 321.032 387.446C286.545 387.151 239.454 387.147 239.636 387.439ZM334.813 388.115C335.378 388.594 337.63 389.529 337.63 389.285C337.63 389.045 335.183 387.764 334.725 387.764C334.545 387.764 334.585 387.922 334.813 388.115ZM338.46 390.584C339.196 391.999 339.801 392.784 339.798 392.319C339.796 392.081 339.393 391.397 338.901 390.801C338.308 390.081 338.16 390.008 338.46 390.584ZM339.871 395.157C339.65 402.838 348.468 414.76 354.29 414.651C354.616 414.645 353.674 414.057 352.196 413.345C345.509 410.123 341.305 404.111 340.328 396.374C339.994 393.722 339.918 393.518 339.871 395.157ZM355.539 415.096C355.899 415.327 356.587 415.506 357.068 415.493L357.941 415.469L357.068 415.096C355.762 414.538 354.671 414.538 355.539 415.096ZM365.367 415.987C368.49 416.159 375.271 416.286 380.437 416.269L389.828 416.24L381.529 415.942C376.964 415.777 370.183 415.65 366.459 415.66L359.689 415.676L365.367 415.987Z" fill="#A4E4D2"/>
<path d="M216.325 417.551C314.304 339.79 433.109 292.704 531.088 214.943C502.219 172.299 473.436 129.519 444.566 86.8743C346.588 164.636 227.783 211.722 129.805 289.483C158.587 332.264 187.456 374.907 216.325 417.551Z" fill="white"/>
<path d="M370.111 138.973C395.83 122.857 420.833 105.756 444.566 86.8743C473.436 129.519 502.219 172.299 531.088 214.943C507.241 233.852 482.238 250.954 456.632 267.042C427.763 224.397 398.894 181.753 370.111 138.973Z" fill="#DB4C4C"/>
<path d="M357.818 183.83C296.242 220.572 232.322 254.055 174.134 295.89C173.309 296.434 172.214 296.35 171.636 295.446C171.085 294.651 171.298 293.559 172.095 292.905C230.283 251.069 294.091 217.613 355.779 180.845C356.603 180.301 357.753 180.605 358.303 181.398C358.882 182.302 358.669 183.395 357.818 183.83Z" fill="#ACB3BA"/>
<path d="M185.343 312.543C243.533 270.707 307.34 237.251 369.028 200.482C369.852 199.938 371.002 200.241 371.552 201.036C372.104 201.83 371.891 202.923 370.955 203.495C309.379 240.237 245.459 273.718 187.269 315.555C186.446 316.099 185.35 316.015 184.772 315.11C184.334 314.289 184.52 313.087 185.343 312.543Z" fill="#ACB3BA"/>
<path d="M198.566 332.07C256.754 290.235 320.562 256.779 382.251 220.01C383.075 219.466 384.224 219.769 384.775 220.564C385.327 221.358 385.114 222.452 384.177 223.023C322.601 259.765 258.681 293.247 200.492 335.083C199.668 335.627 198.573 335.543 197.995 334.638C197.556 333.817 197.743 332.614 198.566 332.07Z" fill="#ACB3BA"/>
<path d="M211.789 351.598C269.977 309.763 333.785 276.307 395.473 239.538C396.297 238.994 397.447 239.298 397.997 240.093C398.548 240.887 398.337 241.98 397.4 242.551C335.824 279.293 271.904 312.775 213.714 354.611C212.891 355.156 211.795 355.07 211.217 354.166C210.779 353.345 210.992 352.252 211.789 351.598Z" fill="#ACB3BA"/>
<path d="M225.011 371.126C283.2 329.29 347.007 295.836 408.696 259.067C409.52 258.522 410.669 258.826 411.22 259.62C411.771 260.415 411.559 261.508 410.622 262.08C349.046 298.82 285.126 332.303 226.937 374.139C226.114 374.684 225.018 374.598 224.44 373.695C224.001 372.874 224.214 371.78 225.011 371.126Z" fill="#ACB3BA"/>
<path d="M432.228 197.508C431.1 195.811 429.971 194.112 428.842 192.415C431.685 184.439 434.502 176.354 437.293 168.16C426.587 151.619 430.314 146.79 430.314 146.79C430.314 146.79 436.079 144.946 447.409 161.107C455.845 161.403 464.28 161.699 472.689 161.886C473.818 163.584 474.947 165.281 476.076 166.98C469.812 170.216 463.521 173.343 457.092 176.388C460.691 182.357 464.065 188.381 466.914 193.72C471.643 193.514 476.26 193.335 480.989 193.128C482.065 194.608 483.054 196.224 484.13 197.702C479.965 199.742 475.8 201.781 471.609 203.711C472.831 206.776 473.195 208.773 472.485 209.29C471.775 209.807 470.074 208.71 467.743 206.489C464.462 209.707 461.067 212.951 457.673 216.195C456.597 214.715 455.607 213.1 454.531 211.621C456.478 207.333 458.285 202.965 460.205 198.568C456.359 194.047 452.076 188.704 447.852 183.115C442.552 187.858 437.39 192.684 432.228 197.508Z" fill="white"/>
<path d="M178.767 42.2537L168.755 1L154.651 23.1338L132.754 10.1984L143.059 52.6558L178.767 42.2537Z" fill="#FF8484"/>
<path d="M384.484 283.853L161.808 337.165C160.227 337.544 158.693 336.638 158.322 335.106L91.6877 60.5554C91.3158 59.0234 92.2659 57.5223 93.8466 57.1437L316.522 3.83043C318.103 3.45194 319.637 4.35824 320.009 5.89021L386.616 280.331C387.014 281.973 385.951 283.502 384.484 283.853Z" fill="#335E32"/>
<path d="M117.672 51.4393L102.09 55.1702C95.9921 56.6301 92.0793 62.6614 93.54 68.6798L156.243 327.035C157.677 332.944 163.841 336.679 170.052 335.192L185.634 331.461L117.672 51.4393Z" fill="#2B4E2C"/>
<path d="M226.482 67.5336C199.833 73.914 183.252 100.115 189.52 125.94C195.787 151.764 222.566 167.583 249.215 161.202C275.864 154.823 292.445 128.622 286.177 102.797C279.91 76.9725 253.13 61.1534 226.482 67.5336ZM281.269 101.772L261.509 106.503C257.026 89.5141 248.666 76.2323 239.493 70.4392C258.729 70.9283 275.851 83.3861 281.269 101.772ZM225.399 72.4244L235.225 112.913L217.271 117.211C212.677 96.3116 216.332 76.9108 225.399 72.4244ZM236.207 116.961L246.034 157.448C235.879 157.448 223.751 141.942 218.254 121.26L236.207 116.961ZM250.186 156.339L240.359 115.851L258.313 111.553C262.934 132.561 259.365 151.826 250.186 156.339ZM239.376 111.802L229.551 71.3147C239.706 71.3147 251.833 86.8209 257.331 107.504L239.376 111.802ZM216.006 76.0625C210.612 85.3432 209.262 100.95 212.953 118.128L193.192 122.859C189.695 104.014 199.221 85.1758 216.006 76.0625ZM194.315 126.991L214.076 122.26C218.557 139.249 226.919 152.531 236.091 158.324C216.855 157.834 199.76 145.486 194.315 126.991ZM259.578 152.701C264.972 143.42 266.321 127.813 262.63 110.635L282.391 105.903C285.916 124.858 276.363 143.587 259.578 152.701Z" fill="#FFD05B"/>
<path d="M169.59 91.5755C167.678 81.7284 178.619 68.2252 190.03 66.9983C185.133 76.8544 177.8 86.0205 169.59 91.5755Z" fill="#FFD05B"/>
<path d="M164.201 110.234C156.723 109.94 151.27 97.8141 157.82 84.4358C164.522 87.9258 165.345 99.1915 164.201 110.234Z" fill="#FFD05B"/>
<path d="M164.201 110.234C171.82 110.609 178.443 103.929 182.581 95.8752C176.08 92.2217 165.611 98.3174 164.201 110.234Z" fill="#FFD05B"/>
<path d="M165.461 132.162C158.228 134.357 148.996 124.874 150.412 110.524C157.937 111.502 162.745 121.466 165.461 132.162Z" fill="#FFD05B"/>
<path d="M165.461 132.162C172.834 130.05 176.84 121.448 177.75 112.894C170.286 111.672 162.759 120.536 165.461 132.162Z" fill="#FFD05B"/>
<path d="M174.147 152.198C168.062 156.665 156.081 150.619 152.483 136.775C160.014 135.319 167.865 143.049 174.147 152.198Z" fill="#FFD05B"/>
<path d="M174.147 152.198C180.345 147.703 181.183 138.356 179.165 130.039C171.718 131.359 167.539 142.201 174.147 152.198Z" fill="#FFD05B"/>
<path d="M189.669 168.396C185.556 174.592 171.767 172.914 163.499 160.999C170.081 157.108 180.17 161.755 189.669 168.396Z" fill="#FFD05B"/>
<path d="M189.669 168.396C193.893 162.175 191.071 153.009 186.31 145.697C179.813 149.452 179.533 161.097 189.669 168.396Z" fill="#FFD05B"/>
<path d="M217.97 176.21C210.065 176.134 202.547 174.691 195.58 172.076C201.338 176.602 208.371 180.476 216.747 182.986C217.172 180.801 217.57 178.505 217.97 176.21Z" fill="#FFD05B"/>
<path d="M288.154 63.1886C285.339 53.5578 269.405 46.4888 258.684 50.5609C267.564 57.1187 278.185 61.9862 288.154 63.1886Z" fill="#FFD05B"/>
<path d="M301.398 77.3856C307.92 73.7398 307.21 60.4785 295.242 51.5339C290.878 57.6734 295.314 68.0741 301.398 77.3856Z" fill="#FFD05B"/>
<path d="M301.398 77.3856C294.788 81.1679 285.828 78.2187 278.449 72.9223C282.674 66.7005 294.676 67.4163 301.398 77.3856Z" fill="#FFD05B"/>
<path d="M310.336 97.4763C317.782 96.1568 321.649 83.5366 313.805 71.4045C307.554 75.6799 307.846 86.7255 310.336 97.4763Z" fill="#FFD05B"/>
<path d="M310.336 97.4763C302.803 98.9324 295.291 93.089 290.556 85.8862C296.641 81.419 307.408 85.9042 310.336 97.4763Z" fill="#FFD05B"/>
<path d="M311.908 119.215C319.373 120.437 327.265 109.633 324.118 95.6816C316.745 97.7942 313.19 108.255 311.908 119.215Z" fill="#FFD05B"/>
<path d="M311.908 119.215C304.328 118.019 299.295 110.077 297.276 101.761C304.51 99.5657 313.091 107.353 311.908 119.215Z" fill="#FFD05B"/>
<path d="M305.41 140.686C311.911 144.339 323.417 136.606 325.311 122.259C317.666 121.773 310.817 130.475 305.41 140.686Z" fill="#FFD05B"/>
<path d="M305.41 140.686C298.794 137.059 297.102 127.623 297.986 118.959C305.604 119.334 311.083 129.601 305.41 140.686Z" fill="#FFD05B"/>
<path d="M283.801 160.448C290.802 156.803 296.833 152.118 301.836 146.636C298.787 153.27 294.302 159.902 287.998 165.927C286.616 164.174 285.209 162.311 283.801 160.448Z" fill="#FFD05B"/>
<path d="M218.941 233.869C221.93 235.354 224.055 238.203 225.117 242.58C226.152 246.848 225.568 250.345 223.588 253.019C221.469 255.611 217.756 257.542 212.449 258.813L207.593 259.974L209.957 269.714L201.939 271.634L193.468 236.726L206.228 233.672C211.647 232.374 215.952 232.386 218.941 233.869ZM216.415 249.063C217.165 247.726 217.246 246.085 216.768 244.115C216.289 242.146 215.24 240.776 213.812 240.307C212.357 239.729 210.331 239.752 207.621 240.401L203.105 241.482L205.947 253.19L211.367 251.893C213.963 251.271 215.665 250.401 216.415 249.063Z" fill="white"/>
<path d="M260.093 257.71L254.873 250.971L239.741 254.594L238.186 262.955L229.604 265.01L236.715 226.371L244.507 224.507L268.561 255.683L260.093 257.71ZM243.191 235.821L241.143 247.08L250.177 244.917L243.191 235.821Z" fill="white"/>
<path d="M273.872 224.887C273.24 225.731 273.088 226.579 273.327 227.564C273.566 228.549 274.23 229.316 275.379 229.62C276.415 229.951 278.859 230.176 282.433 230.131C286.006 230.086 289.035 230.75 291.352 231.932C293.671 233.113 295.158 235.305 295.902 238.369C296.673 241.542 296.041 244.356 294.148 246.894C292.254 249.431 289.219 251.2 285.267 252.146C279.507 253.525 273.922 252.662 268.31 249.722L271.671 242.896C276.307 245.26 280.319 246.036 283.594 245.252C285.061 244.901 286.111 244.302 286.882 243.538C287.513 242.693 287.778 241.819 287.513 240.725C287.247 239.631 286.61 238.972 285.547 238.532C284.485 238.092 282.544 237.978 279.788 237.943C275.371 237.958 272.03 237.484 269.626 236.439C267.335 235.367 265.734 233.202 264.911 229.811C264.113 226.528 264.718 223.603 266.778 221.259C268.837 218.913 271.647 217.198 275.373 216.306C277.745 215.738 280.335 215.581 282.893 215.779C285.449 215.978 287.887 216.667 290.039 217.658L287.354 224.321C283.635 222.78 280.181 222.333 276.794 223.145C275.439 223.469 274.503 224.041 273.872 224.887Z" fill="white"/>
<path d="M306.505 217.073C305.874 217.919 305.721 218.766 305.96 219.751C306.199 220.736 306.863 221.503 308.012 221.806C309.048 222.137 311.492 222.363 315.066 222.318C318.639 222.273 321.668 222.936 323.986 224.119C326.304 225.301 327.791 227.492 328.535 230.556C329.306 233.729 328.675 236.543 326.781 239.081C324.888 241.618 321.852 243.387 317.9 244.333C312.141 245.712 306.555 244.85 300.943 241.909L304.304 235.083C308.94 237.447 312.952 238.223 316.227 237.44C317.695 237.087 318.744 236.49 319.515 235.726C320.146 234.88 320.411 234.006 320.146 232.911C319.881 231.817 319.243 231.16 318.181 230.719C317.118 230.279 315.179 230.164 312.421 230.129C308.004 230.145 304.664 229.671 302.259 228.626C299.968 227.554 298.367 225.39 297.544 221.997C296.748 218.714 297.352 215.791 299.411 213.445C301.471 211.099 304.28 209.384 308.006 208.493C310.378 207.924 312.968 207.768 315.526 207.966C318.083 208.164 320.521 208.854 322.672 209.844L319.988 216.508C316.268 214.967 312.816 214.52 309.427 215.331C308.072 215.656 307.136 216.227 306.505 217.073Z" fill="white"/>
</svg>
