<svg width="459" height="454" viewBox="0 0 459 454" fill="none" xmlns="http://www.w3.org/2000/svg">
<path d="M452.5 228.5C452.5 350.536 353.126 449.5 230.5 449.5C107.874 449.5 8.5 350.536 8.5 228.5C8.5 106.464 107.874 7.5 230.5 7.5C353.126 7.5 452.5 106.464 452.5 228.5Z" stroke="#AD5C22" stroke-width="9"/>
<mask id="mask0_193_132" style="mask-type:alpha" maskUnits="userSpaceOnUse" x="4" y="3" width="453" height="451">
<ellipse cx="230.5" cy="228.5" rx="226.5" ry="225.5" fill="#D9D9D9"/>
</mask>
<g mask="url(#mask0_193_132)">
<ellipse cx="230" cy="228.5" rx="218" ry="216.5" fill="#F5EFEA"/>
<path fill-rule="evenodd" clip-rule="evenodd" d="M222.096 161.009C226.569 160.797 230.207 164.49 230.216 169.03L230.249 187.488C230.256 191.149 227.261 194.107 223.603 194.279V194.279C219.943 194.45 216.744 191.774 216.414 188.124L214.751 169.763C214.341 165.242 217.624 161.221 222.096 161.009ZM198.099 197.736C201.66 196.928 204.08 193.508 203.448 189.911L200.255 171.744C199.469 167.274 195.254 164.278 190.885 165.274C186.517 166.271 183.973 170.808 185.15 175.189L189.915 192.913C190.87 196.465 194.512 198.55 198.099 197.736V197.736ZM164.635 202.313C166.194 205.665 170.175 207.088 173.579 205.646V205.646C176.935 204.224 178.708 200.45 177.471 197.022L171.214 179.692C169.675 175.429 165.01 173.22 160.879 174.971C156.747 176.721 155.019 181.638 156.929 185.744L164.635 202.313ZM242.989 187.998C242.698 191.644 245.444 194.824 249.073 195.284V195.284C252.713 195.746 256.123 193.328 256.737 189.71L259.818 171.567C260.578 167.093 257.618 162.822 253.176 162.253C248.734 161.684 244.82 165.075 244.458 169.6L242.989 187.998ZM269.519 192.555C268.609 196.087 270.744 199.681 274.225 200.772V200.772C277.743 201.874 281.553 200.08 282.785 196.605L288.904 179.343C290.419 175.071 288.236 170.343 283.958 169.001C279.681 167.658 275.245 170.308 274.115 174.701L269.519 192.555ZM294.859 201.728C293.359 205.047 294.824 208.946 298.054 210.63V210.63C301.339 212.344 305.433 211.238 307.253 208.011L316.217 192.122C318.44 188.181 317.099 183.141 313.117 181.066C309.135 178.991 304.313 180.82 302.447 184.947L294.859 201.728ZM318.243 215.223C316.191 218.236 316.951 222.328 319.84 224.552V224.552C322.786 226.82 327.031 226.443 329.39 223.569L340.926 209.516C343.79 206.026 343.333 200.827 339.767 198.082C336.2 195.337 331.138 196.289 328.594 200.025L318.243 215.223ZM338.979 232.608C336.429 235.228 336.466 239.397 338.934 242.095V242.095C341.449 244.844 345.706 245.212 348.535 242.786L362.281 230.996C365.699 228.063 366.14 222.863 363.097 219.532C360.055 216.201 354.907 216.247 351.762 219.478L338.979 232.608ZM356.454 253.362C353.476 255.506 352.784 259.632 354.758 262.726V262.726C356.764 265.872 360.899 266.978 364.111 265.08L379.633 255.909C383.501 253.624 384.826 248.579 382.4 244.763C379.975 240.947 374.897 240.086 371.246 242.714L356.454 253.362ZM370.123 276.881C366.804 278.478 365.398 282.431 366.812 285.832V285.832C368.245 289.279 372.127 291.095 375.624 289.788L392.454 283.5C396.656 281.93 398.824 277.195 397.088 273.01C395.353 268.825 390.5 267.083 386.455 269.028L370.123 276.881ZM379.536 302.468C375.976 303.46 373.893 307.114 374.7 310.721V310.721C375.514 314.362 379.019 316.833 382.69 316.161L400.356 312.928C404.762 312.122 407.708 307.841 406.716 303.414C405.724 298.987 401.243 296.417 396.926 297.621L379.536 302.468ZM384.4 329.333C380.705 329.685 378.004 332.927 378.181 336.634V336.634C378.359 340.351 381.373 343.389 385.095 343.374L403.098 343.301C407.575 343.283 411.209 339.586 410.991 335.051C410.772 330.517 406.799 327.197 402.341 327.622L384.4 329.333ZM384.596 356.901C380.881 356.59 377.634 359.386 377.17 363.084V363.084C376.71 366.759 379.141 370.198 382.789 370.841L400.549 373.972C404.96 374.749 409.177 371.755 409.746 367.252C410.314 362.748 406.976 358.774 402.514 358.401L384.596 356.901ZM380.086 383.841C376.479 382.88 372.789 385.065 371.693 388.633V388.633C370.609 392.161 372.394 395.964 375.859 397.233L392.834 403.451C397.045 404.994 401.71 402.787 403.041 398.453C404.372 394.118 401.766 389.616 397.435 388.463L380.086 383.841ZM370.985 409.565C367.603 407.986 363.591 409.488 361.893 412.812V412.812C360.221 416.088 361.309 420.134 364.488 421.985L380.187 431.124C384.07 433.385 389.042 432.034 391.095 427.999C393.148 423.964 391.353 419.072 387.285 417.174L370.985 409.565ZM357.592 433.276C354.54 431.132 350.334 431.909 348.09 434.888V434.888C345.886 437.814 346.251 441.976 349.047 444.343L362.993 456.15C366.43 459.06 371.558 458.605 374.271 454.993C376.984 451.381 376.053 446.247 372.373 443.661L357.592 433.276ZM340.347 454.265C337.719 451.627 333.451 451.66 330.731 454.203V454.203C328.065 456.697 327.701 460.846 330.036 463.653L341.774 477.769C344.661 481.239 349.789 481.694 353.079 478.615C356.369 475.535 356.332 470.316 353.15 467.121L340.347 454.265ZM319.782 471.906C317.657 468.861 313.463 468.154 310.353 470.181V470.181C307.3 472.17 306.22 476.189 308.03 479.351L317.176 495.323C319.424 499.249 324.396 500.6 328.164 498.146C331.931 495.693 332.788 490.546 330.202 486.84L319.782 471.906ZM296.511 485.654C294.95 482.303 290.968 480.882 287.564 482.326V482.326C284.21 483.75 282.439 487.525 283.678 490.952L289.944 508.279C291.486 512.541 296.152 514.747 300.282 512.994C304.412 511.242 306.138 506.324 304.226 502.219L296.511 485.654ZM271.236 495.069C270.279 491.517 266.636 489.434 263.049 490.25V490.25C259.488 491.061 257.07 494.482 257.704 498.078L260.908 516.243C261.696 520.713 265.913 523.706 270.281 522.708C274.649 521.709 277.19 517.17 276.01 512.79L271.236 495.069ZM244.74 499.873C244.407 496.223 241.207 493.549 237.547 493.722V493.722C233.889 493.895 230.896 496.855 230.905 500.517L230.949 518.975C230.959 523.515 234.6 527.206 239.072 526.991C243.545 526.777 246.825 522.754 246.413 518.233L244.74 499.873ZM217.831 499.986C218.128 496.341 215.387 493.157 211.76 492.691V492.691C208.12 492.223 204.706 494.636 204.086 498.252L200.977 516.39C200.21 520.863 203.163 525.138 207.604 525.714C212.045 526.291 215.965 522.907 216.333 518.382L217.831 499.986ZM190.246 495.099C191.186 491.575 189.084 487.963 185.613 486.842V486.842C182.104 485.708 178.277 487.469 177.015 490.934L170.748 508.139C169.197 512.398 171.339 517.144 175.605 518.524C179.871 519.905 184.329 517.294 185.497 512.911L190.246 495.099ZM164.986 485.701C166.515 482.395 165.085 478.484 161.87 476.771V476.771C158.599 475.029 154.495 476.099 152.646 479.311L143.546 495.119C141.289 499.04 142.587 504.091 146.551 506.202C150.515 508.312 155.353 506.526 157.254 502.416L164.986 485.701ZM141.719 472.001C143.798 469.005 143.073 464.907 140.204 462.658V462.658C137.277 460.363 133.028 460.703 130.644 463.557L118.988 477.507C116.094 480.971 116.506 486.174 120.049 488.951C123.592 491.727 128.661 490.82 131.238 487.107L141.719 472.001ZM121.132 454.434C123.705 451.837 123.705 447.666 121.26 444.947V444.947C118.769 442.176 114.514 441.77 111.664 444.172L97.8187 455.839C94.3752 458.741 93.8902 463.937 96.9037 467.295C99.9172 470.653 105.065 470.653 108.238 467.449L121.132 454.434ZM103.835 433.527C106.833 431.409 107.56 427.289 105.614 424.177V424.177C103.635 421.014 99.509 419.871 96.2801 421.741L80.6819 430.773C76.7937 433.024 75.4261 438.056 77.8188 441.894C80.2114 445.731 85.2813 446.637 88.9548 444.041L103.835 433.527ZM90.3688 409.887C93.703 408.32 95.1437 404.378 93.7593 400.964V400.964C92.3563 397.505 88.4896 395.655 84.9812 396.931L68.0983 403.07C63.8836 404.603 61.675 409.318 63.374 413.518C65.0731 417.719 69.9109 419.503 73.9731 417.594L90.3688 409.887ZM81.1781 384.217C84.7474 383.256 86.8628 379.62 86.0875 376.006V376.006C85.3049 372.358 81.8216 369.857 78.1454 370.496L60.4502 373.572C56.037 374.34 53.0545 378.594 54.0084 383.03C54.9623 387.466 59.4209 390.075 63.7484 388.91L81.1781 384.217ZM70.5392 357.829C77.5585 357.223 82.7103 351.048 82.7103 344.002V344.002V344.002C82.7103 343.612 82.3953 343.293 82.0046 343.292L57.97 343.177C53.4925 343.155 49.8266 346.82 50.0063 351.356C50.1861 355.893 54.1301 359.247 58.5914 358.862L70.5392 357.829ZM76.5635 329.991C80.2761 330.329 83.544 327.556 84.0336 323.861V323.861C84.5198 320.19 82.1132 316.734 78.4714 316.065L60.733 312.806C56.3272 311.996 52.0894 314.96 51.4895 319.459C50.8897 323.958 54.1992 327.956 58.6588 328.362L76.5635 329.991ZM81.2644 303.084C84.8646 304.071 88.5699 301.913 89.6914 298.352V298.352C90.8 294.833 89.0426 291.017 85.5872 289.723L68.6553 283.383C64.4551 281.81 59.7741 283.982 58.4129 288.307C57.0516 292.633 59.6261 297.153 63.9485 298.338L81.2644 303.084ZM90.1189 278.36C93.5001 279.941 97.5129 278.441 99.2119 275.118V275.118C100.886 271.843 99.8002 267.796 96.623 265.944L80.9287 256.795C77.0469 254.532 72.0737 255.881 70.0184 259.914C67.9632 263.948 69.7562 268.841 73.8223 270.742L90.1189 278.36ZM103.525 254.656C106.575 256.802 110.782 256.027 113.027 253.05V253.05C115.233 250.125 114.871 245.963 112.076 243.595L98.1365 231.779C94.7012 228.867 89.5726 229.319 86.8578 232.93C84.143 236.54 85.0708 241.674 88.7497 244.262L103.525 254.656ZM120.782 233.677C123.408 236.317 127.676 236.286 130.397 233.744V233.744C133.065 231.252 133.43 227.103 131.098 224.295L119.367 210.173C116.483 206.7 111.355 206.243 108.063 209.32C104.771 212.398 104.805 217.617 107.985 220.814L120.782 233.677ZM141.356 216.048C143.479 219.094 147.672 219.804 150.784 217.778V217.778C153.838 215.791 154.92 211.772 153.112 208.61L143.976 192.633C141.73 188.705 136.758 187.352 132.989 189.803C129.22 192.254 128.36 197.4 130.944 201.108L141.356 216.048Z" fill="#F2C94C"/>
<ellipse cx="230.534" cy="344.002" rx="124.829" ry="126.57" fill="#F2C94C"/>
<rect x="160.475" y="332.465" width="4.61829" height="49.6406" fill="#AD5C22"/>
<rect x="295.945" y="332.465" width="4.61829" height="49.6406" fill="#AD5C22"/>
<rect x="185.106" y="328.357" width="89.9028" height="53.7488" fill="#AD5C22"/>
<path d="M223.438 65.6039H236.369L274.701 337.6H185.998L223.438 65.6039Z" fill="#AD5C22"/>
<path d="M146.004 330.069L135.536 319.308L230.057 296.861V324.171C219.103 323.933 210.512 325.085 187.148 328.219L186.65 328.286L147.351 333.15H146.004V330.069Z" fill="#AD5C22"/>
<path d="M146.004 338.153V332.916L185.943 328.052L186.449 327.985C210.193 324.851 218.925 323.698 230.057 323.937V335.16C226.99 334.893 225.684 333.271 223.793 328.8L187.77 332.916C186.722 336.514 186.523 337.44 185.16 338.153C183.452 337.244 183.395 336.01 183.071 332.916L151.225 335.534V338.153C150.279 339.254 149.713 339.6 148.615 339.65C147.295 339.698 146.714 339.394 146.004 338.153Z" fill="#EE7F2F"/>
<path d="M314.11 330.069L327.811 314.834L230.057 296.861V324.171C241.011 323.933 249.603 325.085 272.967 328.219L273.465 328.286L312.763 333.15H314.11V330.069Z" fill="#AD5C22"/>
<path d="M314.11 338.153V332.916L274.172 328.052L273.666 327.985C249.921 324.851 241.19 323.698 230.057 323.937V335.16C233.124 334.893 234.431 333.271 236.322 328.8L272.345 332.916C273.393 336.514 273.592 337.44 274.955 338.153C276.662 337.244 276.72 336.01 277.043 332.916L308.89 335.534V338.153C309.835 339.254 310.401 339.6 311.5 339.65C312.819 339.698 313.401 339.394 314.11 338.153Z" fill="#EE7F2F"/>
<path d="M134.701 313.603C134.701 313.603 132.964 313.739 132.491 314.012C132.017 314.285 132.175 317.152 132.175 317.152C133.909 318.808 135.505 319.352 139.279 319.746C151.829 321.475 160.713 321.837 180.327 321.247C194.725 320.119 201.599 318.711 211.744 314.831C219.162 312.043 223.213 310.792 230.057 309.644V291.215C230.057 289.85 217.901 296.948 209.849 297.631C201.798 298.313 200.803 297.407 191.852 296.402C172.673 299.096 160.49 302.44 134.701 313.603Z" fill="#FBD3B0"/>
<path d="M325.414 311.206C325.414 311.206 327.15 311.343 327.624 311.616C328.098 311.889 327.94 314.755 327.94 314.755C326.206 316.412 324.61 316.955 320.835 317.349C308.286 319.079 299.401 319.44 279.788 318.851C265.389 317.723 258.515 316.315 248.371 312.435C240.953 309.647 236.902 308.395 230.057 307.247V288.818C230.057 287.453 242.214 294.552 250.265 295.234C258.317 295.917 259.312 295.011 268.263 294.006C287.442 296.7 299.625 300.043 325.414 311.206Z" fill="#EE7F2F"/>
<path d="M164.771 267.534L156.64 260.745L230.057 246.584V263.813C221.549 263.662 214.876 264.39 196.728 266.367L196.341 266.409L165.817 269.477H164.771V267.534Z" fill="#AD5C22"/>
<path d="M164.771 272.634V269.33L195.792 266.261L196.185 266.219C214.628 264.242 221.41 263.515 230.057 263.665V270.746C227.675 270.577 226.66 269.554 225.191 266.733L197.211 269.33C196.397 271.6 196.243 272.184 195.184 272.634C193.858 272.06 193.813 271.282 193.562 269.33L168.826 270.982V272.634C168.091 273.328 167.652 273.547 166.798 273.578C165.774 273.608 165.322 273.417 164.771 272.634Z" fill="#EE7F2F"/>
<path d="M295.344 267.534L305.986 257.923L230.057 246.584V263.813C238.566 263.662 245.239 264.39 263.386 266.367L263.773 266.409L294.297 269.477H295.344V267.534Z" fill="#AD5C22"/>
<path d="M295.344 272.634V269.33L264.323 266.261L263.929 266.219C245.486 264.242 238.704 263.515 230.057 263.665V270.746C232.439 270.577 233.454 269.554 234.923 266.733L262.903 269.33C263.717 271.6 263.872 272.184 264.931 272.634C266.257 272.06 266.301 271.282 266.553 269.33L291.289 270.982V272.634C292.023 273.328 292.463 273.547 293.316 273.578C294.341 273.608 294.793 273.417 295.344 272.634Z" fill="#EE7F2F"/>
<path d="M155.991 257.146C155.991 257.146 154.642 257.232 154.274 257.404C153.906 257.576 154.029 259.385 154.029 259.385C155.376 260.43 156.616 260.773 159.547 261.021C169.295 262.112 176.196 262.34 191.43 261.968C202.614 261.257 207.953 260.369 215.833 257.921C221.595 256.162 224.741 255.372 230.057 254.648V243.022C230.057 242.161 220.615 246.639 214.361 247.069C208.107 247.5 207.334 246.929 200.382 246.294C185.485 247.994 176.022 250.103 155.991 257.146Z" fill="#FBD3B0"/>
<path d="M304.123 255.634C304.123 255.634 305.472 255.72 305.84 255.892C306.208 256.064 306.086 257.873 306.086 257.873C304.739 258.918 303.499 259.261 300.567 259.509C290.82 260.6 283.919 260.828 268.685 260.457C257.501 259.745 252.161 258.857 244.282 256.409C238.52 254.65 235.374 253.86 230.057 253.136V241.51C230.057 240.649 239.499 245.127 245.753 245.558C252.007 245.988 252.78 245.417 259.733 244.783C274.629 246.482 284.092 248.591 304.123 255.634Z" fill="#EE7F2F"/>
<path d="M176.951 221.448L170.318 215.959L230.211 204.509V218.439C223.27 218.318 217.826 218.906 203.022 220.504L202.706 220.538L177.805 223.019H176.951V221.448Z" fill="#AD5C22"/>
<path d="M176.951 225.571V222.9L202.258 220.419L202.579 220.385C217.625 218.786 223.157 218.198 230.211 218.32V224.045C228.268 223.908 227.44 223.081 226.242 220.801L203.416 222.9C202.752 224.735 202.626 225.207 201.762 225.571C200.68 225.107 200.644 224.478 200.439 222.9L180.259 224.235V225.571C179.66 226.133 179.302 226.309 178.605 226.334C177.769 226.359 177.401 226.204 176.951 225.571Z" fill="#EE7F2F"/>
<path d="M283.471 221.448L292.153 213.677L230.211 204.509V218.439C237.152 218.318 242.596 218.906 257.401 220.504L257.717 220.538L282.618 223.019H283.471V221.448Z" fill="#AD5C22"/>
<path d="M283.471 225.571V222.9L258.165 220.419L257.844 220.385C242.798 218.786 237.265 218.198 230.211 218.32V224.045C232.155 223.908 232.983 223.081 234.181 220.801L257.007 222.9C257.671 224.735 257.797 225.207 258.661 225.571C259.742 225.107 259.779 224.478 259.984 222.9L280.163 224.235V225.571C280.762 226.133 281.121 226.309 281.817 226.334C282.653 226.359 283.022 226.204 283.471 225.571Z" fill="#EE7F2F"/>
<path d="M169.789 213.049C169.789 213.049 168.689 213.118 168.388 213.258C168.088 213.397 168.188 214.859 168.188 214.859C169.287 215.704 170.298 215.981 172.69 216.182C180.642 217.064 186.272 217.249 198.7 216.948C207.823 216.372 212.179 215.654 218.607 213.675C223.308 212.253 225.874 211.615 230.211 211.029V201.629C230.211 200.933 222.508 204.554 217.407 204.902C212.305 205.25 211.674 204.788 206.002 204.275C193.85 205.649 186.13 207.355 169.789 213.049Z" fill="#FBD3B0"/>
<path d="M290.634 211.826C290.634 211.826 291.734 211.896 292.034 212.035C292.334 212.174 292.234 213.637 292.234 213.637C291.136 214.482 290.124 214.759 287.733 214.96C279.781 215.842 274.151 216.026 261.723 215.726C252.599 215.15 248.244 214.432 241.816 212.453C237.115 211.031 234.548 210.393 230.211 209.807V200.407C230.211 199.711 237.914 203.332 243.016 203.68C248.118 204.028 248.748 203.566 254.42 203.053C266.573 204.427 274.292 206.132 290.634 211.826Z" fill="#EE7F2F"/>
<path d="M191.442 181.459L186.422 177.198L231.751 168.31V179.124C226.498 179.03 222.377 179.486 211.173 180.727L210.934 180.754L192.088 182.679H191.442V181.459Z" fill="#AD5C22"/>
<path d="M191.442 184.661V182.587L210.595 180.661L210.838 180.634C222.225 179.393 226.412 178.937 231.751 179.031V183.475C230.28 183.37 229.653 182.727 228.746 180.957L211.471 182.587C210.969 184.011 210.873 184.378 210.219 184.661C209.401 184.301 209.373 183.812 209.218 182.587L193.946 183.624V184.661C193.492 185.096 193.221 185.233 192.694 185.253C192.061 185.272 191.782 185.152 191.442 184.661Z" fill="#EE7F2F"/>
<path d="M272.059 181.459L278.629 175.427L231.751 168.31V179.124C237.004 179.03 241.124 179.486 252.328 180.727L252.567 180.754L271.413 182.679H272.059V181.459Z" fill="#AD5C22"/>
<path d="M272.059 184.661V182.587L252.906 180.661L252.663 180.634C241.277 179.393 237.089 178.937 231.751 179.031V183.475C233.221 183.37 233.848 182.727 234.755 180.957L252.03 182.587C252.533 184.011 252.628 184.378 253.282 184.661C254.1 184.301 254.128 183.812 254.283 182.587L269.555 183.624V184.661C270.009 185.096 270.28 185.233 270.807 185.253C271.44 185.272 271.719 185.152 272.059 184.661Z" fill="#EE7F2F"/>
<path d="M186.021 174.939C186.021 174.939 185.189 174.993 184.962 175.101C184.734 175.209 184.81 176.345 184.81 176.345C185.642 177.001 186.407 177.216 188.217 177.372C194.235 178.056 198.496 178.2 207.902 177.966C214.807 177.519 218.103 176.962 222.968 175.426C226.526 174.322 228.468 173.826 231.751 173.372V166.074C231.751 165.534 225.921 168.344 222.06 168.615C218.198 168.885 217.721 168.526 213.429 168.128C204.231 169.195 198.389 170.519 186.021 174.939Z" fill="#FBD3B0"/>
<path d="M277.48 173.99C277.48 173.99 278.313 174.044 278.54 174.152C278.767 174.26 278.691 175.396 278.691 175.396C277.86 176.052 277.094 176.267 275.284 176.423C269.266 177.107 265.005 177.251 255.599 177.017C248.694 176.571 245.398 176.013 240.533 174.477C236.976 173.373 235.033 172.877 231.751 172.423V165.125C231.751 164.585 237.58 167.396 241.442 167.666C245.303 167.936 245.78 167.577 250.073 167.179C259.27 168.246 265.112 169.57 277.48 173.99Z" fill="#EE7F2F"/>
<path d="M196.445 146.969L192.298 143.575L229.749 136.494V145.109C225.409 145.034 222.005 145.397 212.748 146.386L212.55 146.407L196.979 147.941H196.445V146.969Z" fill="#AD5C22"/>
<path d="M196.445 149.519V147.867L212.27 146.333L212.471 146.312C221.879 145.323 225.339 144.96 229.749 145.035V148.575C228.534 148.491 228.016 147.979 227.267 146.569L212.994 147.867C212.579 149.002 212.5 149.294 211.96 149.519C211.283 149.233 211.261 148.843 211.132 147.867L198.514 148.693V149.519C198.139 149.867 197.915 149.976 197.48 149.991C196.957 150.007 196.727 149.911 196.445 149.519Z" fill="#EE7F2F"/>
<path d="M263.053 146.969L268.482 142.164L229.749 136.494V145.109C234.09 145.034 237.494 145.397 246.751 146.386L246.949 146.407L262.52 147.941H263.053V146.969Z" fill="#AD5C22"/>
<path d="M263.053 149.519V147.867L247.229 146.333L247.028 146.312C237.62 145.323 234.16 144.96 229.749 145.035V148.575C230.965 148.491 231.482 147.979 232.232 146.569L246.505 147.867C246.92 149.002 246.999 149.294 247.539 149.519C248.216 149.233 248.238 148.843 248.367 147.867L260.985 148.693V149.519C261.36 149.867 261.584 149.976 262.019 149.991C262.542 150.007 262.772 149.911 263.053 149.519Z" fill="#EE7F2F"/>
<path d="M191.967 141.775C191.967 141.775 191.279 141.818 191.091 141.904C190.903 141.991 190.966 142.895 190.966 142.895C191.653 143.417 192.285 143.589 193.781 143.713C198.753 144.259 202.274 144.373 210.045 144.187C215.75 143.831 218.474 143.387 222.493 142.163C225.433 141.283 227.037 140.889 229.749 140.527V134.713C229.749 134.283 224.933 136.522 221.743 136.737C218.552 136.953 218.158 136.667 214.611 136.35C207.012 137.199 202.185 138.254 191.967 141.775Z" fill="#FBD3B0"/>
<path d="M267.532 141.019C267.532 141.019 268.22 141.062 268.408 141.149C268.596 141.235 268.533 142.139 268.533 142.139C267.846 142.661 267.214 142.833 265.718 142.957C260.746 143.503 257.225 143.617 249.454 143.431C243.749 143.075 241.025 142.631 237.006 141.407C234.066 140.527 232.461 140.133 229.749 139.771V133.957C229.749 133.527 234.566 135.766 237.756 135.981C240.947 136.197 241.341 135.911 244.888 135.594C252.487 136.443 257.314 137.498 267.532 141.019Z" fill="#EE7F2F"/>
<path d="M205.563 116.588L202.436 114.06L230.673 108.787V115.202C227.401 115.146 224.834 115.417 217.854 116.153L217.705 116.169L205.965 117.311H205.563V116.588Z" fill="#AD5C22"/>
<path d="M205.563 118.487V117.256L217.494 116.114L217.645 116.098C224.739 115.362 227.347 115.091 230.673 115.147V117.784C229.757 117.721 229.366 117.34 228.801 116.29L218.04 117.256C217.727 118.101 217.667 118.319 217.26 118.487C216.75 118.273 216.733 117.983 216.636 117.256L207.123 117.871V118.487C206.84 118.745 206.671 118.826 206.343 118.838C205.949 118.849 205.775 118.778 205.563 118.487Z" fill="#EE7F2F"/>
<path d="M255.783 116.588L259.876 113.009L230.673 108.787V115.202C233.945 115.146 236.512 115.417 243.492 116.153L243.641 116.169L255.381 117.311H255.783V116.588Z" fill="#AD5C22"/>
<path d="M255.783 118.487V117.256L243.852 116.114L243.701 116.098C236.607 115.362 233.999 115.091 230.673 115.147V117.784C231.589 117.721 231.98 117.34 232.545 116.29L243.306 117.256C243.619 118.101 243.679 118.319 244.086 118.487C244.596 118.273 244.613 117.983 244.71 117.256L254.224 117.871V118.487C254.506 118.745 254.675 118.826 255.003 118.838C255.397 118.849 255.571 118.778 255.783 118.487Z" fill="#EE7F2F"/>
<path d="M202.186 112.72C202.186 112.72 201.667 112.752 201.526 112.816C201.384 112.88 201.431 113.553 201.431 113.553C201.949 113.943 202.426 114.07 203.554 114.163C207.303 114.569 209.957 114.654 215.816 114.515C220.118 114.25 222.171 113.92 225.202 113.008C227.418 112.353 228.628 112.059 230.673 111.79V107.461C230.673 107.14 227.041 108.808 224.636 108.968C222.231 109.128 221.933 108.915 219.259 108.679C213.53 109.312 209.89 110.098 202.186 112.72Z" fill="#FBD3B0"/>
<path d="M259.16 112.157C259.16 112.157 259.679 112.189 259.82 112.253C259.962 112.317 259.915 112.991 259.915 112.991C259.397 113.38 258.92 113.507 257.792 113.6C254.043 114.006 251.389 114.091 245.53 113.952C241.228 113.687 239.175 113.357 236.144 112.445C233.928 111.791 232.718 111.496 230.673 111.227V106.898C230.673 106.577 234.305 108.245 236.71 108.405C239.115 108.565 239.413 108.353 242.087 108.116C247.816 108.749 251.456 109.535 259.16 112.157Z" fill="#EE7F2F"/>
<path d="M211.005 89.928L208.651 87.8335L229.903 83.4647V88.7801C227.44 88.7337 225.509 88.958 220.255 89.5681L220.143 89.5811L211.307 90.5277H211.005V89.928Z" fill="#AD5C22"/>
<path d="M211.005 91.5015V90.4821L219.984 89.5355L220.098 89.5225C225.437 88.9124 227.4 88.6881 229.903 88.7345V90.919C229.214 90.867 228.92 90.5513 228.495 89.6811L220.395 90.4821C220.16 91.1823 220.115 91.3626 219.808 91.5015C219.425 91.3245 219.412 91.0843 219.339 90.4821L212.178 90.9918V91.5015C211.966 91.7157 211.839 91.7831 211.591 91.7927C211.295 91.8021 211.164 91.743 211.005 91.5015Z" fill="#EE7F2F"/>
<path d="M248.802 89.928L251.883 86.9629L229.903 83.4647V88.7801C232.366 88.7337 234.298 88.958 239.551 89.5681L239.663 89.5811L248.499 90.5277H248.802V89.928Z" fill="#AD5C22"/>
<path d="M248.802 91.5015V90.4821L239.822 89.5355L239.708 89.5225C234.37 88.9124 232.406 88.6881 229.903 88.7345V90.919C230.593 90.867 230.887 90.5513 231.312 89.6811L239.411 90.4821C239.647 91.1823 239.692 91.3626 239.998 91.5015C240.382 91.3245 240.395 91.0843 240.468 90.4821L247.628 90.9918V91.5015C247.841 91.7157 247.968 91.7831 248.215 91.7927C248.512 91.8021 248.642 91.743 248.802 91.5015Z" fill="#EE7F2F"/>
<path d="M208.463 86.7232C208.463 86.7232 208.073 86.7497 207.966 86.8029C207.86 86.856 207.895 87.414 207.895 87.414C208.285 87.7364 208.644 87.8421 209.492 87.9188C212.314 88.2554 214.312 88.3258 218.722 88.211C221.959 87.9915 223.505 87.7175 225.786 86.9623C227.454 86.4197 228.364 86.1761 229.903 85.9527V82.3658C229.903 82.1001 227.17 83.4817 225.36 83.6146C223.549 83.7474 223.326 83.5711 221.313 83.3754C217.001 83.8997 214.262 84.5505 208.463 86.7232Z" fill="#FBD3B0"/>
<path d="M251.343 86.2567C251.343 86.2567 251.734 86.2833 251.84 86.3364C251.947 86.3896 251.911 86.9475 251.911 86.9475C251.522 87.27 251.163 87.3757 250.314 87.4524C247.492 87.789 245.495 87.8594 241.085 87.7446C237.847 87.525 236.302 87.2511 234.021 86.4959C232.353 85.9533 231.442 85.7096 229.903 85.4862V81.8994C229.903 81.6337 232.637 83.0153 234.447 83.1481C236.257 83.281 236.481 83.1047 238.494 82.909C242.806 83.4333 245.545 84.0841 251.343 86.2567Z" fill="#EE7F2F"/>
<path d="M215.242 72.9805L213.431 70.3083L229.779 64.7343V71.516C227.885 71.4568 226.399 71.743 222.358 72.5213L222.272 72.5379L215.475 73.7456H215.242V72.9805Z" fill="#AD5C22"/>
<path d="M215.242 74.9881V73.6875L222.149 72.4797L222.237 72.4631C226.344 71.6848 227.854 71.3986 229.779 71.4578V74.2449C229.249 74.1786 229.023 73.7757 228.696 72.6655L222.466 73.6875C222.284 74.5809 222.25 74.8109 222.014 74.9881C221.719 74.7623 221.709 74.4559 221.653 73.6875L216.145 74.3378V74.9881C215.981 75.2614 215.883 75.3474 215.693 75.3597C215.465 75.3717 215.365 75.2962 215.242 74.9881Z" fill="#EE7F2F"/>
<path d="M244.317 72.9805L246.686 69.1974L229.779 64.7343V71.516C231.674 71.4568 233.16 71.743 237.201 72.5213L237.287 72.5379L244.084 73.7456H244.317V72.9805Z" fill="#AD5C22"/>
<path d="M244.317 74.9881V73.6875L237.409 72.4797L237.322 72.4631C233.215 71.6848 231.705 71.3986 229.779 71.4578V74.2449C230.31 74.1786 230.536 73.7757 230.863 72.6655L237.093 73.6875C237.275 74.5809 237.309 74.8109 237.545 74.9881C237.84 74.7623 237.85 74.4559 237.906 73.6875L243.414 74.3378V74.9881C243.577 75.2614 243.675 75.3474 243.865 75.3597C244.094 75.3717 244.194 75.2962 244.317 74.9881Z" fill="#EE7F2F"/>
<path d="M213.461 68.8562C213.461 68.8562 213.461 69.0274 213.461 69.1986C213.461 69.3698 213.461 69.7121 213.461 69.7121C213.461 70.2256 213.426 70.3192 214.079 70.4171C216.249 70.8465 217.786 70.9364 221.178 70.7899C223.668 70.5098 224.857 70.1602 226.612 69.1967C227.895 68.5044 228.596 68.1936 229.779 67.9086V63.3322C229.779 62.9933 227.677 64.756 226.284 64.9255C224.892 65.095 224.72 64.87 223.171 64.6204C219.854 65.2893 217.922 66.0842 213.461 68.8562Z" fill="#FBD3B0"/>
<path d="M246.272 68.2965C246.272 68.2965 246.572 68.3304 246.654 68.3982C246.736 68.466 246.709 69.1779 246.709 69.1779C246.409 69.5893 246.133 69.7241 245.48 69.822C243.309 70.2514 241.773 70.3413 238.381 70.1949C235.89 69.9147 234.701 69.5651 232.947 68.6016C231.664 67.9093 230.963 67.5985 229.779 67.3135V62.7371C229.779 62.3982 231.882 64.1609 233.274 64.3304C234.667 64.4999 234.839 64.2749 236.387 64.0253C239.704 64.6942 241.811 65.5245 246.272 68.2965Z" fill="#EE7F2F"/>
<path d="M213.895 67.0316C213.895 67.0316 213.6 67.1139 213.519 67.2785C213.439 67.443 213.466 69.1711 213.466 69.1711C213.76 70.1697 214.031 70.4971 214.672 70.7346C216.803 71.7771 218.312 71.9952 221.642 71.6398C224.088 70.9597 225.255 70.1112 226.977 67.7722C228.237 66.0917 228.925 65.3371 230.087 64.6452V49.2784C230.087 48.4555 228.579 49.6208 227.778 50.6479C226.977 51.6749 226.547 58.3507 223.6 56.6632C220.389 58.3507 218.274 60.3026 213.895 67.0316Z" fill="#FBD3B0"/>
<path d="M246.272 67.1417C246.272 67.1417 246.572 67.2245 246.654 67.3901C246.736 67.5557 246.709 69.2943 246.709 69.2943C246.409 70.299 246.133 70.6284 245.48 70.8673C243.31 71.9162 241.773 72.1356 238.381 71.778C235.89 71.0938 234.701 70.2401 232.947 67.8868C231.664 66.196 230.963 65.4369 229.779 64.7407V49.2801C229.779 48.4521 231.316 49.6246 232.131 50.6579C232.947 51.6913 233.386 58.4078 236.387 56.71C239.657 58.4078 241.811 60.3716 246.272 67.1417Z" fill="#EE7F2F"/>
<rect x="354.31" y="351.543" width="4.09651" height="31.5893" fill="#AD5C22"/>
<rect x="417.294" y="351.543" width="4.09651" height="31.5893" fill="#AD5C22"/>
<rect x="369.672" y="349.505" width="36.3565" height="33.6274" fill="#AD5C22"/>
<path d="M377.097 293.205L386.827 292.186L396.3 293.205L406.029 351.289H369.417L377.097 293.205Z" fill="#AD5C22"/>
<path d="M346.857 350.74L341.655 346.978L388.619 339.131V348.678C383.176 348.595 378.907 348.998 367.299 350.093L367.051 350.117L347.526 351.817H346.857V350.74Z" fill="#AD5C22"/>
<path d="M346.857 353.566V351.735L366.7 350.035L366.952 350.011C378.749 348.916 383.087 348.513 388.619 348.596V352.52C387.095 352.427 386.446 351.859 385.506 350.296L367.608 351.735C367.087 352.993 366.988 353.317 366.311 353.566C365.463 353.248 365.434 352.817 365.273 351.735L349.45 352.651V353.566C348.981 353.951 348.699 354.072 348.153 354.089C347.498 354.106 347.209 354 346.857 353.566Z" fill="#EE7F2F"/>
<path d="M430.381 350.74L437.188 345.414L388.619 339.131V348.678C394.061 348.595 398.33 348.998 409.938 350.093L410.186 350.117L429.712 351.817H430.381V350.74Z" fill="#AD5C22"/>
<path d="M430.381 353.566V351.735L410.537 350.035L410.286 350.011C398.488 348.916 394.15 348.513 388.619 348.596V352.52C390.142 352.427 390.792 351.859 391.731 350.296L409.629 351.735C410.15 352.993 410.249 353.317 410.926 353.566C411.775 353.248 411.803 352.817 411.964 351.735L427.787 352.651V353.566C428.257 353.951 428.538 354.072 429.084 354.089C429.739 354.106 430.028 354 430.381 353.566Z" fill="#EE7F2F"/>
<path d="M341.24 344.983C341.24 344.983 340.377 345.031 340.142 345.127C339.907 345.222 339.985 346.224 339.985 346.224C340.847 346.803 341.64 346.993 343.515 347.131C349.75 347.736 354.165 347.862 363.91 347.656C371.064 347.262 374.479 346.769 379.52 345.413C383.205 344.438 385.218 344.001 388.619 343.599V337.157C388.619 336.68 382.579 339.161 378.578 339.4C374.578 339.638 374.083 339.322 369.636 338.97C360.107 339.912 354.054 341.081 341.24 344.983Z" fill="#FBD3B0"/>
<path d="M435.997 344.146C435.997 344.146 436.86 344.193 437.095 344.289C437.331 344.384 437.252 345.386 437.252 345.386C436.391 345.966 435.598 346.156 433.722 346.293C427.487 346.898 423.073 347.024 413.328 346.818C406.174 346.424 402.758 345.932 397.718 344.575C394.032 343.601 392.019 343.163 388.619 342.762V336.319C388.619 335.842 394.659 338.323 398.659 338.562C402.66 338.801 403.154 338.484 407.601 338.133C417.13 339.074 423.184 340.243 435.997 344.146Z" fill="#EE7F2F"/>
<path d="M355.907 317.178L351.993 314.06L387.339 307.558V315.469C383.242 315.4 380.03 315.734 371.293 316.642L371.106 316.661L356.411 318.07H355.907V317.178Z" fill="#AD5C22"/>
<path d="M355.907 319.519V318.002L370.842 316.593L371.031 316.574C379.911 315.666 383.176 315.332 387.339 315.401V318.652C386.192 318.575 385.703 318.105 384.996 316.81L371.525 318.002C371.133 319.044 371.059 319.313 370.549 319.519C369.911 319.256 369.889 318.898 369.768 318.002L357.859 318.761V319.519C357.506 319.838 357.294 319.938 356.883 319.953C356.39 319.967 356.172 319.879 355.907 319.519Z" fill="#EE7F2F"/>
<path d="M418.77 317.178L423.894 312.765L387.339 307.558V315.469C391.435 315.4 394.648 315.734 403.385 316.642L403.571 316.661L418.266 318.07H418.77V317.178Z" fill="#AD5C22"/>
<path d="M418.77 319.519V318.002L403.835 316.593L403.646 316.574C394.767 315.666 391.502 315.332 387.339 315.401V318.652C388.485 318.575 388.974 318.105 389.681 316.81L403.152 318.002C403.544 319.044 403.618 319.313 404.128 319.519C404.766 319.256 404.788 318.898 404.909 318.002L416.818 318.761V319.519C417.172 319.838 417.383 319.938 417.794 319.953C418.287 319.967 418.505 319.879 418.77 319.519Z" fill="#EE7F2F"/>
<path d="M351.68 312.408C351.68 312.408 351.031 312.447 350.854 312.527C350.676 312.606 350.736 313.436 350.736 313.436C351.384 313.916 351.981 314.073 353.392 314.187C358.085 314.688 361.408 314.793 368.742 314.622C374.126 314.295 376.697 313.888 380.49 312.764C383.264 311.956 384.779 311.594 387.339 311.261V305.923C387.339 305.528 382.793 307.584 379.782 307.782C376.771 307.979 376.399 307.717 373.052 307.426C365.88 308.206 361.324 309.174 351.68 312.408Z" fill="#FBD3B0"/>
<path d="M422.997 311.714C422.997 311.714 423.646 311.753 423.824 311.832C424.001 311.911 423.942 312.742 423.942 312.742C423.293 313.222 422.696 313.379 421.285 313.493C416.592 313.994 413.27 314.099 405.935 313.928C400.551 313.601 397.98 313.194 394.187 312.07C391.413 311.262 389.898 310.9 387.339 310.567V305.229C387.339 304.833 391.884 306.89 394.895 307.087C397.906 307.285 398.278 307.023 401.626 306.731C408.797 307.512 413.353 308.48 422.997 311.714Z" fill="#EE7F2F"/>
<path d="M369.313 292.685L367.112 290.67L386.983 286.469V291.581C384.68 291.536 382.874 291.752 377.962 292.338L377.857 292.351L369.596 293.261H369.313V292.685Z" fill="#AD5C22"/>
<path d="M369.313 294.198V293.217L377.709 292.307L377.815 292.295C382.807 291.708 384.642 291.492 386.983 291.537V293.638C386.338 293.588 386.063 293.284 385.666 292.447L378.093 293.217C377.872 293.891 377.831 294.064 377.544 294.198C377.185 294.028 377.173 293.797 377.105 293.217L370.41 293.708V294.198C370.211 294.404 370.092 294.469 369.861 294.478C369.584 294.487 369.462 294.43 369.313 294.198Z" fill="#EE7F2F"/>
<path d="M404.652 292.685L407.533 289.833L386.983 286.469V291.581C389.285 291.536 391.091 291.752 396.003 292.338L396.108 292.351L404.369 293.261H404.652V292.685Z" fill="#AD5C22"/>
<path d="M404.652 294.198V293.217L396.256 292.307L396.15 292.295C391.158 291.708 389.323 291.492 386.983 291.537V293.638C387.627 293.588 387.902 293.284 388.3 292.447L395.872 293.217C396.093 293.891 396.134 294.064 396.421 294.198C396.78 294.028 396.792 293.797 396.86 293.217L403.555 293.708V294.198C403.754 294.404 403.873 294.469 404.104 294.478C404.381 294.487 404.503 294.43 404.652 294.198Z" fill="#EE7F2F"/>
<path d="M367.149 289.576C367.149 289.576 367.149 289.705 367.149 289.834C367.149 289.963 367.148 290.221 367.148 290.221C367.148 290.608 367.105 290.678 367.899 290.752C370.537 291.076 372.405 291.144 376.528 291.033C379.555 290.822 381 290.559 383.133 289.832C384.692 289.31 385.544 289.076 386.983 288.861V285.412C386.983 285.156 384.427 286.485 382.734 286.613C381.042 286.74 380.833 286.571 378.951 286.383C374.919 286.887 372.57 287.486 367.149 289.576Z" fill="#FBD3B0"/>
<path d="M407.029 289.154C407.029 289.154 407.394 289.179 407.493 289.23C407.593 289.282 407.56 289.818 407.56 289.818C407.195 290.128 406.86 290.23 406.066 290.304C403.428 290.627 401.56 290.695 397.437 290.585C394.41 290.374 392.965 290.11 390.832 289.384C389.273 288.862 388.421 288.628 386.983 288.413V284.963C386.983 284.708 389.538 286.036 391.231 286.164C392.923 286.292 393.133 286.122 395.014 285.934C399.046 286.438 401.607 287.064 407.029 289.154Z" fill="#EE7F2F"/>
<path d="M367.675 288.2C367.675 288.2 367.317 288.262 367.219 288.386C367.121 288.51 367.154 289.813 367.154 289.813C367.512 290.566 367.841 290.813 368.62 290.992C371.21 291.777 373.044 291.942 377.092 291.674C380.064 291.161 381.483 290.522 383.577 288.759C385.108 287.492 385.944 286.923 387.357 286.401V274.818C387.357 274.198 385.523 275.076 384.55 275.85C383.577 276.624 383.053 281.657 379.471 280.385C375.569 281.657 372.998 283.128 367.675 288.2Z" fill="#FBD3B0"/>
<path d="M407.029 288.283C407.029 288.283 407.394 288.346 407.493 288.47C407.593 288.595 407.56 289.906 407.56 289.906C407.195 290.663 406.86 290.912 406.066 291.092C403.428 291.882 401.56 292.048 397.437 291.778C394.41 291.262 392.965 290.619 390.833 288.845C389.273 287.57 388.421 286.998 386.983 286.473V274.819C386.983 274.195 388.85 275.079 389.841 275.858C390.833 276.637 391.366 281.7 395.014 280.42C398.989 281.7 401.607 283.18 407.029 288.283Z" fill="#EE7F2F"/>
<rect x="37.1876" y="351.543" width="4.09651" height="31.5893" fill="#AD5C22"/>
<rect x="100.171" y="351.543" width="4.09651" height="31.5893" fill="#AD5C22"/>
<rect x="52.5496" y="349.505" width="36.3565" height="33.6274" fill="#AD5C22"/>
<path d="M59.9745 293.205L69.7037 292.186L79.1769 293.205L88.9061 351.289H52.2936L59.9745 293.205Z" fill="#AD5C22"/>
<path d="M29.7337 350.74L24.5326 346.978L71.4959 339.131V348.678C66.0533 348.595 61.7845 348.998 50.1761 350.093L49.9285 350.117L30.403 351.817H29.7337V350.74Z" fill="#AD5C22"/>
<path d="M29.7337 353.566V351.735L49.5772 350.035L49.8289 350.011C61.6264 348.916 65.9647 348.513 71.4959 348.596V352.52C69.9721 352.427 69.3228 351.859 68.3832 350.296L50.4851 351.735C49.9642 352.993 49.8656 353.317 49.1881 353.566C48.34 353.248 48.3114 352.817 48.1506 351.735L32.3276 352.651V353.566C31.8577 353.951 31.5766 354.072 31.0307 354.089C30.3752 354.106 30.0863 354 29.7337 353.566Z" fill="#EE7F2F"/>
<path d="M113.258 350.74L120.065 345.414L71.4959 339.131V348.678C76.9384 348.595 81.2072 348.998 92.8156 350.093L93.0632 350.117L112.589 351.817H113.258V350.74Z" fill="#AD5C22"/>
<path d="M113.258 353.566V351.735L93.4145 350.035L93.1628 350.011C81.3653 348.916 77.027 348.513 71.4959 348.596V352.52C73.0197 352.427 73.669 351.859 74.6086 350.296L92.5066 351.735C93.0275 352.993 93.1261 353.317 93.8036 353.566C94.6517 353.248 94.6803 352.817 94.8412 351.735L110.664 352.651V353.566C111.134 353.951 111.415 354.072 111.961 354.089C112.617 354.106 112.905 354 113.258 353.566Z" fill="#EE7F2F"/>
<path d="M24.1175 344.983C24.1175 344.983 23.2547 345.031 23.0193 345.127C22.784 345.222 22.8624 346.224 22.8624 346.224C23.7239 346.803 24.517 346.993 26.3923 347.131C32.6276 347.736 37.042 347.862 46.7869 347.656C53.9409 347.262 57.3564 346.769 62.3967 345.413C66.0825 344.438 68.0951 344.001 71.4959 343.599V337.157C71.4959 336.68 65.4559 339.161 61.4554 339.4C57.4549 339.638 56.9606 339.322 52.5131 338.97C42.9842 339.912 36.931 341.081 24.1175 344.983Z" fill="#FBD3B0"/>
<path d="M118.874 344.146C118.874 344.146 119.737 344.193 119.972 344.289C120.208 344.384 120.129 345.386 120.129 345.386C119.268 345.966 118.475 346.156 116.599 346.293C110.364 346.898 105.95 347.024 96.2048 346.818C89.0508 346.424 85.6353 345.932 80.595 344.575C76.9092 343.601 74.8966 343.163 71.4959 342.762V336.319C71.4959 335.842 77.5358 338.323 81.5363 338.562C85.5368 338.801 86.0311 338.484 90.4786 338.133C100.008 339.074 106.061 340.243 118.874 344.146Z" fill="#EE7F2F"/>
<path d="M38.7843 317.178L34.8697 314.06L70.2158 307.558V315.469C66.1196 315.4 62.9068 315.734 54.1699 316.642L53.9835 316.661L39.288 318.07H38.7843V317.178Z" fill="#AD5C22"/>
<path d="M38.7843 319.519V318.002L53.7191 316.593L53.9085 316.574C62.7877 315.666 66.0529 315.332 70.2158 315.401V318.652C69.0689 318.575 68.5803 318.105 67.8731 316.81L54.4024 318.002C54.0104 319.044 53.9362 319.313 53.4263 319.519C52.788 319.256 52.7665 318.898 52.6454 318.002L40.7366 318.761V319.519C40.3829 319.838 40.1713 319.938 39.7604 319.953C39.2671 319.967 39.0496 319.879 38.7843 319.519Z" fill="#EE7F2F"/>
<path d="M101.647 317.178L106.771 312.765L70.2158 307.558V315.469C74.312 315.4 77.5248 315.734 86.2617 316.642L86.4481 316.661L101.144 318.07H101.647V317.178Z" fill="#AD5C22"/>
<path d="M101.647 319.519V318.002L86.7125 316.593L86.5231 316.574C77.6439 315.666 74.3787 315.332 70.2158 315.401V318.652C71.3626 318.575 71.8513 318.105 72.5585 316.81L86.0292 318.002C86.4212 319.044 86.4954 319.313 87.0053 319.519C87.6436 319.256 87.6651 318.898 87.7862 318.002L99.695 318.761V319.519C100.049 319.838 100.26 319.938 100.671 319.953C101.165 319.967 101.382 319.879 101.647 319.519Z" fill="#EE7F2F"/>
<path d="M34.5573 312.408C34.5573 312.408 33.908 312.447 33.7308 312.527C33.5537 312.606 33.6127 313.436 33.6127 313.436C34.2611 313.916 34.858 314.073 36.2694 314.187C40.9623 314.688 44.2847 314.793 51.6191 314.622C57.0034 314.295 59.574 313.888 63.3675 312.764C66.1416 311.956 67.6563 311.594 70.2158 311.261V305.923C70.2158 305.528 65.6699 307.584 62.659 307.782C59.6481 307.979 59.2761 307.717 55.9288 307.426C48.757 308.206 44.2012 309.174 34.5573 312.408Z" fill="#FBD3B0"/>
<path d="M105.874 311.714C105.874 311.714 106.524 311.753 106.701 311.832C106.878 311.911 106.819 312.742 106.819 312.742C106.17 313.222 105.574 313.379 104.162 313.493C99.4693 313.994 96.1469 314.099 88.8125 313.928C83.4282 313.601 80.8576 313.194 77.0641 312.07C74.29 311.262 72.7753 310.9 70.2158 310.567V305.229C70.2158 304.833 74.7617 306.89 77.7726 307.087C80.7835 307.285 81.1555 307.023 84.5028 306.731C91.6746 307.512 96.2304 308.48 105.874 311.714Z" fill="#EE7F2F"/>
<path d="M52.19 292.685L49.9894 290.67L69.8599 286.469V291.581C67.5571 291.536 65.7509 291.752 60.8393 292.338L60.7346 292.351L52.4732 293.261H52.19V292.685Z" fill="#AD5C22"/>
<path d="M52.19 294.198V293.217L60.5859 292.307L60.6924 292.295C65.684 291.708 67.5196 291.492 69.8599 291.537V293.638C69.2151 293.588 68.9404 293.284 68.5429 292.447L60.9701 293.217C60.7497 293.891 60.708 294.064 60.4213 294.198C60.0625 294.028 60.0504 293.797 59.9823 293.217L53.2875 293.708V294.198C53.0887 294.404 52.9697 294.469 52.7388 294.478C52.4614 294.487 52.3392 294.43 52.19 294.198Z" fill="#EE7F2F"/>
<path d="M87.5297 292.685L90.41 289.833L69.8599 286.469V291.581C72.1626 291.536 73.9688 291.752 78.8804 292.338L78.9852 292.351L87.2465 293.261H87.5297V292.685Z" fill="#AD5C22"/>
<path d="M87.5297 294.198V293.217L79.1338 292.307L79.0273 292.295C74.0357 291.708 72.2001 291.492 69.8599 291.537V293.638C70.5046 293.588 70.7793 293.284 71.1769 292.447L78.7497 293.217C78.97 293.891 79.0118 294.064 79.2984 294.198C79.6573 294.028 79.6694 293.797 79.7374 293.217L86.4322 293.708V294.198C86.631 294.404 86.75 294.469 86.981 294.478C87.2583 294.487 87.3805 294.43 87.5297 294.198Z" fill="#EE7F2F"/>
<path d="M50.0259 289.576C50.0259 289.576 50.0259 289.705 50.0259 289.834C50.0259 289.963 50.0258 290.221 50.0258 290.221C50.0258 290.608 49.9828 290.678 50.7762 290.752C53.4144 291.076 55.2822 291.144 59.4054 291.033C62.4322 290.822 63.8774 290.559 66.01 289.832C67.5694 289.31 68.421 289.076 69.8599 288.861V285.412C69.8599 285.156 67.3043 286.485 65.6117 286.613C63.919 286.74 63.7099 286.571 61.8281 286.383C57.7964 286.887 55.4474 287.486 50.0259 289.576Z" fill="#FBD3B0"/>
<path d="M89.906 289.154C89.906 289.154 90.271 289.179 90.3706 289.23C90.4702 289.282 90.437 289.818 90.437 289.818C90.0725 290.128 89.737 290.23 88.9435 290.304C86.3053 290.627 84.4375 290.695 80.3144 290.585C77.2875 290.374 75.8424 290.11 73.7098 289.384C72.1503 288.862 71.2988 288.628 69.8599 288.413V284.963C69.8599 284.708 72.4154 286.036 74.108 286.164C75.8007 286.292 76.0098 286.122 77.8916 285.934C81.9234 286.438 84.4845 287.064 89.906 289.154Z" fill="#EE7F2F"/>
<path d="M50.5525 288.2C50.5525 288.2 50.1941 288.262 50.0963 288.386C49.9985 288.51 50.0311 289.813 50.0311 289.813C50.389 290.566 50.7185 290.813 51.4975 290.992C54.0877 291.777 55.9215 291.942 59.9697 291.674C62.9416 291.161 64.3604 290.522 66.4542 288.759C67.9854 287.492 68.8214 286.923 70.2342 286.401V274.818C70.2342 274.198 68.4007 275.076 67.4275 275.85C66.4542 276.624 65.9305 281.657 62.3485 280.385C58.446 281.657 55.8754 283.128 50.5525 288.2Z" fill="#FBD3B0"/>
<path d="M89.906 288.283C89.906 288.283 90.2711 288.346 90.3707 288.47C90.4703 288.595 90.4371 289.906 90.4371 289.906C90.0726 290.663 89.737 290.912 88.9436 291.092C86.3054 291.882 84.4376 292.048 80.3144 291.778C77.2876 291.262 75.8424 290.619 73.7098 288.845C72.1503 287.57 71.2988 286.998 69.8599 286.473V274.819C69.8599 274.195 71.7274 275.079 72.7186 275.858C73.7098 276.637 74.2432 281.7 77.8916 280.42C81.8664 281.7 84.4845 283.18 89.906 288.283Z" fill="#EE7F2F"/>
<path d="M529.705 171.369C471.255 199.191 446.974 275.858 431.564 385.333L434.141 386.601L437.292 365.527L456.211 368.547L472.735 283.591C486.256 239.433 497.226 216.223 513.636 194.239C518.436 188.795 521.83 185.177 528.538 184.471C531.775 185.107 533.34 184.571 534.575 188.15C535.294 191.337 534.876 193.903 534.232 198.384C534.143 200.588 534.515 201.606 536.052 202.961C540.047 204.73 540.72 206.808 540.893 212.879C540.091 218.483 538.861 221.428 536.211 226.564C539.787 224.779 541.41 225.538 547.366 212.769C547.779 206.891 546.577 204.45 542.646 201.156C542.294 198.988 542.368 195.967 543.71 194.038C545.051 192.109 544.964 186.834 542.847 182.183C537.542 174.391 534.697 172.676 529.705 171.369Z" fill="#EE7F2F"/>
<path d="M-69.7049 175.371C-11.2551 203.192 13.0259 279.86 28.4363 389.334L25.8587 390.602L22.7079 369.528L3.78849 372.548L-12.735 287.593C-26.2562 243.435 -37.2258 220.225 -53.6364 198.24C-58.4362 192.796 -61.8302 189.178 -68.5377 188.473C-71.7754 189.109 -73.3403 188.573 -74.5752 192.152C-75.294 195.339 -74.8766 197.905 -74.2324 202.385C-74.1429 204.59 -74.5155 205.608 -76.0518 206.963C-80.0467 208.732 -80.7197 210.81 -80.8929 216.88C-80.0908 222.485 -78.8608 225.429 -76.2113 230.565C-79.7869 228.781 -81.4106 229.54 -87.3662 216.771C-87.7793 210.893 -86.5769 208.451 -82.6456 205.157C-82.2945 202.99 -82.3684 199.969 -83.7098 198.04C-85.0512 196.11 -84.964 190.835 -82.8468 186.185C-77.5426 178.393 -74.6966 176.678 -69.7049 175.371Z" fill="#EE7F2F"/>
<path d="M229.5 457.5C123.588 481.152 89.3781 464.931 79 404L63.5 390.5L403 385.5C353.535 441.711 303.419 463.839 229.5 457.5Z" fill="#8ED973" stroke="black"/>
<rect width="215.294" height="26.0185" transform="matrix(0.990483 0.0873794 0 1 18.5397 359.853)" fill="#FBD3B0"/>
<rect width="194.329" height="4.62651" rx="2.31326" transform="matrix(0.990509 0.0871842 0.00737156 0.999651 28.4867 366.676)" fill="#EE7F2F"/>
<rect width="194.329" height="4.62651" rx="2.31326" transform="matrix(0.990509 0.0871842 0.00737156 0.999651 28.5548 375.925)" fill="#EE7F2F"/>
<rect width="203.921" height="4.62651" rx="2.31326" transform="matrix(0.990509 0.0871842 0.00737156 0.999651 23.564 370.864)" fill="#EE7F2F"/>
<rect width="215.294" height="26.0185" transform="matrix(-0.990483 0.0873794 0 1 441.46 359.584)" fill="#FBD3B0"/>
<rect width="194.329" height="4.62651" rx="2.31326" transform="matrix(-0.990509 0.0871842 -0.00737156 0.999651 431.513 366.407)" fill="#EE7F2F"/>
<rect width="194.329" height="4.62651" rx="2.31326" transform="matrix(-0.990509 0.0871842 -0.00737156 0.999651 431.446 375.656)" fill="#EE7F2F"/>
<rect width="203.921" height="4.62651" rx="2.31326" transform="matrix(-0.990509 0.0871842 -0.00737156 0.999651 436.436 370.595)" fill="#EE7F2F"/>
</g>
</svg>
